<?xml version="1.0" encoding="UTF-8" standalone="no"?><svg width="1300" height="1300" viewBox="0 0 1300 1300" fill="none" xmlns="http://www.w3.org/2000/svg">
<path d="M650 1300C290.71 1300 0 1008.86 0 650C0 290.71 291.141 0 650 0C1009.29 0 1300 291.141 1300 650C1300.43 1009.29 1009.29 1300 650 1300Z" fill="#F7C0B5"/>
<mask id="mask0_26_635" style="mask-type:alpha" maskUnits="userSpaceOnUse" x="0" y="0" width="1301" height="1300">
<path d="M650 1300C290.71 1300 0 1008.86 0 650C0 290.71 291.141 0 650 0C1009.29 0 1300 291.141 1300 650C1300.43 1009.29 1009.29 1300 650 1300Z" fill="#F7C0B5"/>
</mask>
<g mask="url(#mask0_26_635)">
<path d="M1015.73 1197.33C1012.7 1199.5 1009.23 1201.66 1006.2 1203.83C1002.73 1206 999.698 1208.16 996.231 1209.9C993.198 1211.63 990.598 1213.36 987.564 1215.1C987.131 1215.53 986.698 1215.53 986.264 1215.96C976.298 1222.03 965.898 1227.66 955.498 1232.86C952.464 1234.6 948.998 1236.33 945.964 1237.63C945.964 1237.63 945.531 1238.06 945.098 1238.06C941.631 1239.8 938.164 1241.53 934.698 1243.26C927.764 1246.73 920.398 1249.76 913.464 1252.8C909.998 1254.53 906.098 1255.83 902.631 1257.13C899.164 1258.43 895.264 1260.16 891.798 1261.46C888.331 1262.76 884.431 1264.5 880.964 1265.8C880.964 1265.8 880.964 1265.8 880.531 1265.8C877.064 1267.1 873.164 1268.4 869.698 1269.7C861.898 1272.3 853.664 1274.9 845.864 1277.5C843.264 1278.36 840.231 1279.23 837.631 1280.1C829.398 1282.7 821.164 1284.86 812.931 1286.6C809.898 1287.46 806.864 1287.9 803.398 1288.76C795.598 1290.5 787.364 1292.23 779.564 1293.96C777.831 1294.4 776.531 1294.4 774.798 1294.83C772.198 1295.26 769.164 1295.7 766.564 1296.13C762.664 1296.56 759.198 1297.43 755.298 1297.86C753.564 1298.3 751.831 1298.3 750.098 1298.73C747.931 1299.16 745.331 1299.6 742.731 1299.6C735.798 1300.46 728.431 1301.33 721.498 1302.2C719.331 1302.63 716.731 1302.63 714.564 1303.06H714.131C711.098 1303.5 708.064 1303.5 705.031 1303.93C701.998 1304.36 698.964 1304.36 695.931 1304.36C694.198 1304.36 692.031 1304.8 690.298 1304.8C686.831 1304.8 683.798 1305.23 680.764 1305.23C676.431 1305.23 672.531 1305.66 668.198 1305.66C663.864 1305.66 659.964 1305.66 655.631 1305.66C652.598 1305.66 649.564 1305.66 646.531 1305.66C464.098 1303.06 299.431 1225.5 182.431 1102.43C182.431 1102.43 182.431 1102 181.998 1102C195.431 1075.56 245.264 1027.9 297.264 988.465C363.131 938.632 456.298 907.865 456.298 907.865C456.298 907.865 517.398 897.898 744.031 945.132C916.931 981.532 990.598 1129.3 1015.73 1197.33Z" fill="#FEE4BF"/>
<path d="M792.131 1065.16C783.031 1109.8 724.098 1136.23 624.865 1096.36C503.098 1046.96 456.298 907.865 456.298 907.865C449.798 808.198 434.631 722.832 434.631 722.832C575.465 710.698 741.865 875.365 741.865 875.365L760.931 956.832C762.665 963.765 766.131 969.832 771.331 974.165C780.431 989.765 798.198 1036.56 792.131 1065.16Z" fill="#FEE4BF"/>
<path d="M771.331 974.599C688.564 970.265 627.464 958.132 562.031 840.699C617.497 889.665 682.931 908.299 751.831 916.965L760.931 956.832C762.664 964.199 766.131 970.265 771.331 974.599Z" fill="#EFBDA5"/>
<path d="M942.498 452.432C950.298 488.832 954.198 518.298 932.964 615.365C911.731 712.432 952.464 809.498 850.198 898.332C781.298 958.132 660.831 969.398 564.631 903.965C532.131 881.865 502.231 851.098 477.964 810.798C458.898 779.165 436.798 749.265 412.098 721.965C377.864 684.698 336.698 609.732 357.064 477.132C389.998 261.332 603.631 236.632 729.731 260.465C855.831 284.298 921.264 356.232 942.498 452.432Z" fill="#FEE4BF"/>
<path d="M527.797 621.865C527.797 621.865 514.364 556.865 451.097 564.665C396.497 571.598 377.431 702.465 501.364 738.865" fill="#FEE4BF"/>
<path d="M497.465 679.498C497.465 679.498 481.865 669.532 483.598 652.198C486.198 631.832 483.598 619.265 474.065 615.365C450.231 605.398 445.465 633.132 446.331 636.598" stroke="#423232" stroke-width="13" stroke-miterlimit="10" stroke-linecap="round" stroke-linejoin="round"/>
<path d="M828.097 721.532C828.097 721.532 844.564 722.398 860.164 703.765C868.831 693.365 876.197 680.365 871.431 676.465C866.664 672.132 788.231 684.265 783.031 694.665C777.831 705.065 808.164 721.532 828.097 721.532Z" fill="#EFBDA5"/>
<path d="M841.098 575.932C841.098 575.932 841.965 617.098 868.398 663.032C880.098 683.398 862.331 716.765 823.765 722.398" stroke="#423232" stroke-width="13" stroke-miterlimit="10" stroke-linecap="round" stroke-linejoin="round"/>
<path opacity="0.42" d="M606.231 743.632C630.882 743.632 650.865 727.141 650.865 706.799C650.865 686.456 630.882 669.965 606.231 669.965C581.581 669.965 561.598 686.456 561.598 706.799C561.598 727.141 581.581 743.632 606.231 743.632Z" fill="#F2A5B2"/>
<path opacity="0.42" d="M926.031 670.832C924.731 695.098 925.164 718.932 923.431 742.765C904.364 738.432 890.498 724.132 890.498 707.232C890.498 689.032 905.664 674.298 926.031 670.832Z" fill="#F2A5B2"/>
<path d="M377.807 891.367C377.807 891.367 441.074 866.233 452.774 865.367L453.64 875.334C453.64 875.334 403.374 897 400.34 900.467C397.74 903.5 377.807 891.367 377.807 891.367Z" fill="#7E5D6D"/>
<path d="M1158.24 1453.4H62.7739C62.7739 1453.4 69.2739 1252.33 135.141 1108.9C184.974 1000.57 304.574 929.067 391.674 897.867C416.374 889.2 435.441 879.667 453.207 874.9C453.207 877.067 454.507 893.1 454.507 894.834C454.507 894.834 522.974 962 677.241 970.234C748.741 974.134 755.674 929.5 755.674 929.5C763.907 927.767 771.707 925.6 779.507 923C782.107 922.134 800.307 914.767 802.474 913.9C858.374 928.634 926.841 970.234 1026.07 1053.43C1138.31 1148.33 1158.24 1453.4 1158.24 1453.4Z" fill="#423232"/>
<mask id="mask1_26_635" style="mask-type:alpha" maskUnits="userSpaceOnUse" x="62" y="874" width="1097" height="580">
<path d="M1158.24 1453.4H62.772C62.772 1453.4 69.272 1252.33 135.139 1108.9C184.972 1000.57 304.572 929.067 391.672 897.867C416.372 889.2 435.439 879.667 453.205 874.9C453.205 877.067 454.505 893.1 454.505 894.834C454.505 894.834 522.972 962 677.239 970.234C748.739 974.134 755.672 929.5 755.672 929.5C763.905 927.767 771.705 925.6 779.505 923C782.105 922.134 800.305 914.767 802.472 913.9C858.372 928.634 926.839 970.234 1026.07 1053.43C1138.31 1148.33 1158.24 1453.4 1158.24 1453.4Z" fill="#423232"/>
</mask>
<g mask="url(#mask1_26_635)">
<path d="M453.64 947.267C499.14 1011.4 620.474 1109.33 717.54 1127.97C763.907 1136.63 830.207 977.6 769.973 913.467C718.407 858.434 499.14 844.134 464.04 868.4C421.14 897 442.374 931.667 453.64 947.267Z" stroke="#FFFF8D" stroke-width="21.6667" stroke-miterlimit="10"/>
</g>
<path d="M947.207 1012.7C975.208 1012.7 997.907 990.001 997.907 962C997.907 933.999 975.208 911.3 947.207 911.3C919.206 911.3 896.507 933.999 896.507 962C896.507 990.001 919.206 1012.7 947.207 1012.7Z" fill="#FFFF8D"/>
<path d="M277.274 1453.4L257.774 1293.07" stroke="#544D4D" stroke-width="13" stroke-miterlimit="10" stroke-linecap="round" stroke-linejoin="round"/>
<path d="M1033.87 1238.03C1033.87 1238.03 1020.87 1269.67 1024.77 1301.3C1028.67 1332.93 1039.94 1379.3 1023.91 1453.4" stroke="#544D4D" stroke-width="13" stroke-miterlimit="10" stroke-linecap="round" stroke-linejoin="round"/>
<path d="M377.807 891.367C386.04 888.767 400.34 891.367 404.673 898.734C421.573 926.467 462.307 1007.5 479.207 1168.27C492.64 1293.93 472.273 1520.13 472.273 1520.13L51.5068 1500.2C51.5068 1500.2 64.0735 1286.57 100.907 1143.13C136.873 1004.03 231.34 941.634 377.807 891.367Z" fill="white"/>
<path d="M813.307 917.8C813.307 917.8 947.207 1169.57 908.207 1505.83H1197.24C1197.24 1505.83 1195.94 1238.9 1130.94 1093.73C1065.94 949 838.44 906.534 838.44 906.534C838.44 906.534 824.14 913.467 813.307 917.8Z" fill="white"/>
<path d="M813.306 917.8L802.906 914.767C802.906 914.767 818.073 907.4 824.573 903.067L828.473 900.9C828.473 900.9 849.273 910.434 856.64 913.9C864.006 917.367 831.073 933.4 831.073 933.4C831.073 933.4 814.606 917.8 813.306 917.8Z" fill="#7E5D6D"/>
<path d="M341.84 1040C341.84 1040 282.04 1082.03 287.673 1126.67C293.307 1171.3 477.473 1450.8 477.473 1450.8C477.473 1450.8 499.14 1299.13 474.44 1127.53C474.44 1127.53 456.673 1103.7 424.173 1079.87C402.507 1064.7 374.773 1048.67 341.84 1040Z" fill="#AD7E5A"/>
<path d="M1041.24 1126.67C1042.97 1098.93 978.84 1053.87 978.84 1053.87C953.274 1061.23 935.074 1072.93 922.074 1085.5C893.04 1112.8 889.14 1143.57 889.14 1143.57L890.874 1151.37C921.64 1285.27 912.54 1459.47 912.54 1459.47C912.54 1459.47 1039.51 1154.4 1041.24 1126.67Z" fill="#AD7E5A"/>
<path d="M474.007 1127.53C474.007 1127.53 443.674 1095.47 407.274 1072.93C326.674 1023.1 208.374 1000.13 207.074 961.567C206.207 918.234 350.074 827.667 445.407 796.9C445.407 797.334 445.407 797.767 445.407 798.2C445.407 798.634 445.407 799.067 445.407 799.934C445.407 800.8 445.407 801.667 445.841 802.534C445.841 803.834 446.274 805.134 446.274 806.434C446.274 807.3 446.274 807.734 446.707 808.6C449.741 834.6 452.341 863.634 454.507 894.4V894.834C454.507 894.834 434.574 901.334 448.874 1000.57C452.774 1024.83 467.507 1067.3 474.007 1127.53Z" fill="#AD7E5A"/>
<path d="M889.14 1141.4C889.14 1141.4 860.107 1028.73 845.807 992.767C831.507 957.233 804.64 916.933 803.34 914.767C820.24 906.967 835.407 897 848.84 885.3C862.274 873.6 873.107 861.9 882.207 850.2C930.74 875.767 1069.84 956.367 1076.77 996.667C1084.57 1040.43 916.007 1037.83 889.14 1141.4Z" fill="#AD7E5A"/>
<path d="M732.707 1204.67C760.708 1204.67 783.407 1181.97 783.407 1153.97C783.407 1125.97 760.708 1103.27 732.707 1103.27C704.706 1103.27 682.007 1125.97 682.007 1153.97C682.007 1181.97 704.706 1204.67 732.707 1204.67Z" fill="#FFFF8D"/>
<path d="M732.707 1179.97C747.066 1179.97 758.707 1168.33 758.707 1153.97C758.707 1139.61 747.066 1127.97 732.707 1127.97C718.347 1127.97 706.707 1139.61 706.707 1153.97C706.707 1168.33 718.347 1179.97 732.707 1179.97Z" fill="#FFBE71"/>
<path d="M978.84 1053.87C953.274 1061.23 935.074 1072.93 922.074 1085.5C893.04 1112.8 889.14 1143.57 889.14 1143.57" stroke="#894B33" stroke-width="13" stroke-miterlimit="10" stroke-linecap="round" stroke-linejoin="round"/>
<path d="M474.006 1127.53C474.006 1127.53 456.24 1103.7 423.74 1079.87C402.506 1064.27 374.773 1048.67 341.406 1039.57" stroke="#894B33" stroke-width="13" stroke-miterlimit="10" stroke-linecap="round" stroke-linejoin="round"/>
<path d="M683.943 619.439C673.543 619.006 665.743 610.339 666.61 599.939L667.043 587.806C667.476 577.406 676.143 569.606 686.543 570.473C696.943 570.906 704.743 579.573 703.876 589.973L703.443 602.106C703.01 612.073 694.343 619.873 683.943 619.439Z" fill="#423232"/>
<path d="M866.375 625.939C856.842 625.506 849.475 617.272 849.909 607.739L850.342 596.472C850.775 586.939 859.009 579.572 868.542 580.006C878.075 580.439 885.442 588.672 885.009 598.206L884.575 609.472C884.142 619.006 875.909 626.372 866.375 625.939Z" fill="#423232"/>
<path d="M725.977 594.306C725.977 594.306 714.71 578.273 695.21 575.239C679.177 572.639 661.41 580.439 658.81 589.539" stroke="#423232" stroke-width="13" stroke-miterlimit="10" stroke-linecap="round" stroke-linejoin="round"/>
<path d="M853.809 598.206C853.809 598.206 853.809 584.339 873.743 584.339C890.209 584.339 897.143 599.506 897.143 599.506" stroke="#423232" stroke-width="13" stroke-miterlimit="10" stroke-linecap="round" stroke-linejoin="round"/>
<path d="M743.743 524.539C752.843 527.573 761.942 519.339 760.209 509.373C759.342 504.173 757.176 498.973 752.843 495.073C739.843 483.373 686.109 472.973 653.609 488.139C625.009 502.006 702.143 510.673 743.743 524.539Z" fill="#423232"/>
<path d="M873.308 531.473C865.941 534.073 858.141 526.273 859.441 517.173C859.874 512.406 861.608 507.639 865.074 504.173C875.474 493.773 911.008 485.539 933.541 501.573C953.041 515.006 907.108 518.906 873.308 531.473Z" fill="#423232"/>
<path d="M793.697 770.764C768.997 785.497 725.231 769.464 704.864 744.764" stroke="#423232" stroke-width="13" stroke-miterlimit="10" stroke-linecap="round" stroke-linejoin="round"/>
<path d="M1052.43 935.089C1028.17 881.356 1009.53 888.722 1026.43 840.189C1043.33 792.089 1021.67 757.856 977.034 712.356C934.568 669.022 930.234 621.789 931.534 614.856C927.634 633.056 925.901 651.689 925.034 669.889C923.734 694.156 924.168 717.989 922.434 741.822C918.968 795.122 906.401 847.556 849.201 896.956C824.068 918.622 792.001 934.222 756.468 941.589C746.934 970.622 761.234 991.422 792.434 994.889C823.634 998.356 836.634 1045.16 907.268 1067.26C1013 1101.49 1076.7 988.822 1052.43 935.089Z" fill="#0E1111"/>
<path d="M854.835 410.756C863.935 415.522 871.735 411.189 876.501 401.656C926.768 393.856 938.468 494.389 940.201 500.456C941.935 506.956 942.801 525.156 939.335 574.989C937.168 602.722 1098.37 405.989 951.035 322.789C961.868 306.756 954.068 227.022 863.501 207.522C831.001 200.589 788.535 230.922 735.235 219.222C526.801 172.856 310.568 217.056 327.468 492.222C331.368 552.456 335.268 617.456 233.001 660.789C114.268 711.056 120.335 842.356 203.968 869.222C238.635 880.489 124.235 958.489 190.968 1027.82C225.635 1064.22 287.601 990.556 350.435 1030.42C445.335 1090.66 492.568 1063.36 511.201 1039.52C549.335 990.989 502.101 893.489 502.101 893.489C502.101 893.489 520.735 863.589 526.801 847.556C556.268 768.689 486.068 733.156 486.068 733.156C377.735 691.556 397.235 570.656 450.101 563.722C505.568 556.789 522.901 606.189 525.935 618.322C525.935 618.322 574.901 685.922 669.368 531.656C762.968 377.389 814.101 388.656 854.835 410.756Z" fill="#0E1111"/>
<path d="M749.232 669.067H648.266C621.832 669.067 600.599 647.834 600.599 621.4V580.234C600.599 553.8 621.832 532.567 648.266 532.567H749.232C775.666 532.567 796.899 553.8 796.899 580.234V621.4C796.899 647.834 775.232 669.067 749.232 669.067Z" stroke="#3D3635" stroke-width="13" stroke-miterlimit="10" stroke-linecap="round" stroke-linejoin="round"/>
<path d="M923.432 532.567H873.599C856.266 532.567 841.966 546.867 841.966 564.2V601.9C848.032 623.567 856.699 644.367 869.699 663C870.999 663 872.299 663.434 873.599 663.434H923.432C940.766 663.434 955.066 649.134 955.066 631.8V564.2C955.499 546.434 941.199 532.567 923.432 532.567Z" stroke="#3D3635" stroke-width="13" stroke-miterlimit="10" stroke-linecap="round" stroke-linejoin="round"/>
<path d="M796.899 572C811.633 570.267 830.266 568.967 845.866 570.7" stroke="#3D3635" stroke-width="13" stroke-miterlimit="10" stroke-linecap="round" stroke-linejoin="round"/>
<path d="M600.599 575.034L500.066 578.5" stroke="#3D3635" stroke-width="13" stroke-miterlimit="10" stroke-linecap="round" stroke-linejoin="round"/>
</g>
</svg>
