<?xml version="1.0" encoding="UTF-8" standalone="no"?><svg width="1300" height="1300" viewBox="0 0 1300 1300" fill="none" xmlns="http://www.w3.org/2000/svg">
<path d="M650 1300C290.71 1300 0 1008.86 0 650C0 290.71 291.141 0 650 0C1009.29 0 1300 291.141 1300 650C1300.43 1009.29 1009.29 1300 650 1300Z" fill="#F4DA92"/>
<mask id="mask0_26_635" style="mask-type:alpha" maskUnits="userSpaceOnUse" x="0" y="0" width="1301" height="1300">
<path d="M650 1300C290.71 1300 0 1008.86 0 650C0 290.71 291.141 0 650 0C1009.29 0 1300 291.141 1300 650C1300.43 1009.29 1009.29 1300 650 1300Z" fill="#F7C0B5"/>
</mask>
<g mask="url(#mask0_26_635)">
<path d="M1015.73 1197.33C1012.7 1199.5 1009.23 1201.66 1006.2 1203.83C1002.73 1206 999.698 1208.16 996.231 1209.9C993.198 1211.63 990.598 1213.36 987.564 1215.1C987.131 1215.53 986.698 1215.53 986.264 1215.96C976.298 1222.03 965.898 1227.66 955.498 1232.86C952.464 1234.6 948.998 1236.33 945.964 1237.63C945.964 1237.63 945.531 1238.06 945.098 1238.06C941.631 1239.8 938.164 1241.53 934.698 1243.26C927.764 1246.73 920.398 1249.76 913.464 1252.8C909.998 1254.53 906.098 1255.83 902.631 1257.13C899.164 1258.43 895.264 1260.16 891.798 1261.46C888.331 1262.76 884.431 1264.5 880.964 1265.8C880.964 1265.8 880.964 1265.8 880.531 1265.8C877.064 1267.1 873.164 1268.4 869.698 1269.7C861.898 1272.3 853.664 1274.9 845.864 1277.5C843.264 1278.36 840.231 1279.23 837.631 1280.1C829.398 1282.7 821.164 1284.86 812.931 1286.6C809.898 1287.46 806.864 1287.9 803.398 1288.76C795.598 1290.5 787.364 1292.23 779.564 1293.96C777.831 1294.4 776.531 1294.4 774.798 1294.83C772.198 1295.26 769.164 1295.7 766.564 1296.13C762.664 1296.56 759.198 1297.43 755.298 1297.86C753.564 1298.3 751.831 1298.3 750.098 1298.73C747.931 1299.16 745.331 1299.6 742.731 1299.6C735.798 1300.46 728.431 1301.33 721.498 1302.2C719.331 1302.63 716.731 1302.63 714.564 1303.06H714.131C711.098 1303.5 708.064 1303.5 705.031 1303.93C701.998 1304.36 698.964 1304.36 695.931 1304.36C694.198 1304.36 692.031 1304.8 690.298 1304.8C686.831 1304.8 683.798 1305.23 680.764 1305.23C676.431 1305.23 672.531 1305.66 668.198 1305.66C663.864 1305.66 659.964 1305.66 655.631 1305.66C652.598 1305.66 649.564 1305.66 646.531 1305.66C464.098 1303.06 299.431 1225.5 182.431 1102.43C182.431 1102.43 182.431 1102 181.998 1102C195.431 1075.56 245.264 1027.9 297.264 988.465C363.131 938.632 456.298 907.865 456.298 907.865C456.298 907.865 517.398 897.898 744.031 945.132C916.931 981.532 990.598 1129.3 1015.73 1197.33Z" fill="#FEE4BF"/>
<path d="M792.131 1065.16C783.031 1109.8 724.098 1136.23 624.865 1096.36C503.098 1046.96 456.298 907.865 456.298 907.865C449.798 808.198 434.631 722.832 434.631 722.832C575.465 710.698 741.865 875.365 741.865 875.365L760.931 956.832C762.665 963.765 766.131 969.832 771.331 974.165C780.431 989.765 798.198 1036.56 792.131 1065.16Z" fill="#FEE4BF"/>
<path d="M771.331 974.599C688.564 970.265 627.464 958.132 562.031 840.699C617.497 889.665 682.931 908.299 751.831 916.965L760.931 956.832C762.664 964.199 766.131 970.265 771.331 974.599Z" fill="#EFBDA5"/>
<path d="M942.498 452.432C950.298 488.832 954.198 518.298 932.964 615.365C911.731 712.432 952.464 809.498 850.198 898.332C781.298 958.132 660.831 969.398 564.631 903.965C532.131 881.865 502.231 851.098 477.964 810.798C458.898 779.165 436.798 749.265 412.098 721.965C377.864 684.698 336.698 609.732 357.064 477.132C389.998 261.332 603.631 236.632 729.731 260.465C855.831 284.298 921.264 356.232 942.498 452.432Z" fill="#FEE4BF"/>
<path d="M527.797 621.865C527.797 621.865 514.364 556.865 451.097 564.665C396.497 571.598 377.431 702.465 501.364 738.865" fill="#FEE4BF"/>
<path d="M497.465 679.498C497.465 679.498 481.865 669.532 483.598 652.198C486.198 631.832 483.598 619.265 474.065 615.365C450.231 605.398 445.465 633.132 446.331 636.598" stroke="#423232" stroke-width="13" stroke-miterlimit="10" stroke-linecap="round" stroke-linejoin="round"/>
<path d="M828.097 721.532C828.097 721.532 844.564 722.398 860.164 703.765C868.831 693.365 876.197 680.365 871.431 676.465C866.664 672.132 788.231 684.265 783.031 694.665C777.831 705.065 808.164 721.532 828.097 721.532Z" fill="#EFBDA5"/>
<path d="M841.098 575.932C841.098 575.932 841.965 617.098 868.398 663.032C880.098 683.398 862.331 716.765 823.765 722.398" stroke="#423232" stroke-width="13" stroke-miterlimit="10" stroke-linecap="round" stroke-linejoin="round"/>
<path opacity="0.42" d="M606.231 743.632C630.882 743.632 650.865 727.141 650.865 706.799C650.865 686.456 630.882 669.965 606.231 669.965C581.581 669.965 561.598 686.456 561.598 706.799C561.598 727.141 581.581 743.632 606.231 743.632Z" fill="#F2A5B2"/>
<path opacity="0.42" d="M926.031 670.832C924.731 695.098 925.164 718.932 923.431 742.765C904.364 738.432 890.498 724.132 890.498 707.232C890.498 689.032 905.664 674.298 926.031 670.832Z" fill="#F2A5B2"/>
<path d="M1166.53 1467.78L68.8993 1443.51C57.6327 1167.05 171.166 1021.01 215.799 992.414C299.433 938.247 408.199 922.214 459.333 917.447C472.333 949.514 521.733 1054.81 624.433 1096.41C723.666 1136.71 782.599 1109.85 791.699 1065.21C797.333 1036.61 779.566 989.814 770.466 974.647C765.266 970.314 761.799 963.814 760.066 957.314L756.599 943.014C763.966 941.281 771.333 939.547 778.699 936.947C960.266 957.314 1033.93 1006.71 1077.27 1091.21C1121.9 1178.31 1166.53 1467.78 1166.53 1467.78Z" fill="#474E51"/>
<path d="M261.3 1466.05C261.3 1466.05 255.666 1325.65 250.033 1299.65" stroke="#544D4D" stroke-width="13" stroke-miterlimit="10" stroke-linecap="round" stroke-linejoin="round"/>
<path d="M1029.17 1466.05C1029.17 1466.05 1016.17 1378.95 1016.17 1363.78C1016.17 1349.05 1027.43 1300.51 1029.17 1258.05" stroke="#544D4D" stroke-width="13" stroke-miterlimit="10" stroke-linecap="round" stroke-linejoin="round"/>
<path d="M685.533 1189.15L669.933 1512.41C669.933 1512.41 807.299 1606.01 807.299 1603.41C807.299 1600.81 872.299 1487.28 872.299 1487.28L770.899 1176.15C770.899 1176.15 757.899 1189.58 685.533 1189.15Z" fill="#D85656"/>
<path d="M716.732 1085.15C716.732 1085.15 657.366 1141.05 649.566 1155.78C641.766 1170.51 682.932 1193.91 682.932 1193.91C682.932 1193.91 749.232 1207.78 779.132 1180.91C779.132 1180.91 796.032 1162.28 792.566 1144.51C789.532 1127.18 716.732 1085.15 716.732 1085.15Z" fill="#EA6363"/>
<path d="M446.766 866.314L452.399 865.014C468.433 916.581 570.266 1038.35 716.733 1085.15L625.733 1199.98C619.666 1207.78 608.833 1209.08 601.033 1203.45C563.766 1175.71 464.099 1094.25 423.366 990.247C414.699 968.581 412.966 944.747 417.3 922.214L422.933 891.447C425.099 878.881 434.633 868.914 446.766 866.314Z" fill="white"/>
<path d="M838.066 1160.55C835.466 1174.85 818.566 1180.48 807.732 1170.51L716.299 1085.15C716.299 1085.15 769.599 1034.45 756.599 942.581C774.366 938.681 791.266 933.047 806.866 925.681C807.299 926.547 813.366 938.247 820.299 957.747C835.032 998.047 853.666 1072.15 838.066 1160.55Z" fill="white"/>
<path d="M683.943 619.439C673.543 619.006 665.743 610.339 666.61 599.939L667.043 587.806C667.476 577.406 676.143 569.606 686.543 570.473C696.943 570.906 704.743 579.573 703.876 589.973L703.443 602.106C703.01 612.073 694.343 619.873 683.943 619.439Z" fill="#423232"/>
<path d="M866.375 625.939C856.842 625.506 849.475 617.272 849.909 607.739L850.342 596.472C850.775 586.939 859.009 579.572 868.542 580.006C878.075 580.439 885.442 588.672 885.009 598.206L884.575 609.472C884.142 619.006 875.909 626.372 866.375 625.939Z" fill="#423232"/>
<path d="M725.977 594.306C725.977 594.306 714.71 578.273 695.21 575.239C679.177 572.639 661.41 580.439 658.81 589.539" stroke="#423232" stroke-width="13" stroke-miterlimit="10" stroke-linecap="round" stroke-linejoin="round"/>
<path d="M853.809 598.206C853.809 598.206 853.809 584.339 873.743 584.339C890.209 584.339 897.143 599.506 897.143 599.506" stroke="#423232" stroke-width="13" stroke-miterlimit="10" stroke-linecap="round" stroke-linejoin="round"/>
<path d="M743.743 524.539C752.843 527.573 761.942 519.339 760.209 509.373C759.342 504.173 757.176 498.973 752.843 495.073C739.843 483.373 686.109 472.973 653.609 488.139C625.009 502.006 702.143 510.673 743.743 524.539Z" fill="#423232"/>
<path d="M873.308 531.473C865.941 534.073 858.141 526.273 859.441 517.173C859.874 512.406 861.608 507.639 865.074 504.173C875.474 493.773 911.008 485.539 933.541 501.573C953.041 515.006 907.108 518.906 873.308 531.473Z" fill="#423232"/>
<path d="M798.031 764.264C778.964 775.53 748.631 768.597 726.531 753.43" stroke="#343231" stroke-width="10.6951" stroke-miterlimit="10" stroke-linecap="round" stroke-linejoin="round"/>
<path d="M942.818 447.316C941.518 440.816 939.785 433.883 937.618 427.383C935.451 420.883 930.251 415.249 923.318 413.949C900.785 410.049 871.318 433.016 840.118 428.683C740.885 415.249 682.385 361.949 589.218 397.916C493.018 435.183 547.618 590.316 527.251 614.149C523.785 602.016 506.885 552.616 451.418 559.549C398.985 566.049 379.051 687.383 487.385 728.983C486.518 752.816 443.618 775.349 408.951 733.749C374.285 692.149 304.951 584.249 351.751 426.516C398.551 268.783 610.451 186.449 807.618 266.616C841.418 280.483 861.784 314.716 891.251 320.349C1165.12 372.349 976.185 631.483 967.951 701.249C965.785 725.083 949.318 478.516 942.818 447.316Z" fill="#0E1111"/>
<path d="M487.818 729.416C487.818 729.416 486.951 764.949 450.551 830.816C450.551 830.816 441.885 794.416 422.818 761.049C404.185 727.683 383.385 713.383 360.418 643.616C337.451 573.849 363.885 605.049 384.685 633.649C405.918 662.683 419.785 733.749 487.818 729.416Z" fill="#0E1111"/>
<path d="M870.885 402.25C870.885 402.25 914.218 317.316 757.351 240.616C600.485 163.916 439.718 217.65 343.085 207.25C343.085 207.25 452.285 280.916 563.651 299.983C675.018 319.05 870.885 402.25 870.885 402.25Z" fill="#0E1111"/>
<path d="M561.484 250.149C561.484 250.149 350.451 247.983 263.784 474.183C263.784 474.183 349.584 420.449 472.651 409.183C595.718 397.916 615.218 261.416 561.484 250.149Z" fill="#0E1111"/>
<path d="M893.418 412.216C893.418 412.216 1026.45 365.416 943.685 253.183C847.918 124.049 539.385 174.316 539.385 174.316C539.385 174.316 650.751 203.783 697.118 268.349C743.051 333.349 857.885 439.949 893.418 412.216Z" fill="#0E1111"/>
<path d="M797.218 420.45C797.218 420.45 709.684 373.65 656.384 419.15C589.651 476.35 606.984 757.15 606.984 757.15C606.984 757.15 528.551 615.45 529.851 482.416C531.151 349.383 592.251 316.016 656.384 321.65C720.518 327.283 788.984 399.65 797.218 420.45Z" fill="#0E1111"/>
<path d="M847.918 429.549C847.918 429.549 690.618 293.916 682.385 533.549C682.385 533.549 632.552 483.283 672.852 369.316C713.152 255.349 839.252 346.349 847.918 429.549Z" fill="#0E1111"/>
<path d="M749.232 669.067H648.266C621.832 669.067 600.599 647.834 600.599 621.4V580.234C600.599 553.8 621.832 532.567 648.266 532.567H749.232C775.666 532.567 796.899 553.8 796.899 580.234V621.4C796.899 647.834 775.232 669.067 749.232 669.067Z" stroke="#0E1111" stroke-width="13" stroke-miterlimit="10" stroke-linecap="round" stroke-linejoin="round"/>
<path d="M923.432 532.567H873.599C856.266 532.567 841.966 546.867 841.966 564.2V601.9C848.032 623.567 856.699 644.367 869.699 663C870.999 663 872.299 663.434 873.599 663.434H923.432C940.766 663.434 955.066 649.134 955.066 631.8V564.2C955.499 546.434 941.199 532.567 923.432 532.567Z" stroke="#0E1111" stroke-width="13" stroke-miterlimit="10" stroke-linecap="round" stroke-linejoin="round"/>
<path d="M796.899 572C811.633 570.267 830.266 568.967 845.866 570.7" stroke="#0E1111" stroke-width="13" stroke-miterlimit="10" stroke-linecap="round" stroke-linejoin="round"/>
<path d="M600.599 575.034L500.066 578.5" stroke="#0E1111" stroke-width="13" stroke-miterlimit="10" stroke-linecap="round" stroke-linejoin="round"/>
</g>
</svg>
