<svg width="1300" height="1300" viewBox="0 0 1300 1300" fill="none" xmlns="http://www.w3.org/2000/svg">
<path d="M650 1300C290.71 1300 0 1008.86 0 650C0 290.71 291.141 0 650 0C1009.29 0 1300 291.141 1300 650C1300.43 1009.29 1009.29 1300 650 1300Z" fill="#B5E2C9"/>
<mask id="mask0_26_635" style="mask-type:alpha" maskUnits="userSpaceOnUse" x="0" y="0" width="1301" height="1300">
<path d="M650 1300C290.71 1300 0 1008.86 0 650C0 290.71 291.141 0 650 0C1009.29 0 1300 291.141 1300 650C1300.43 1009.29 1009.29 1300 650 1300Z" fill="#F7C0B5"/>
</mask>
<g mask="url(#mask0_26_635)">
<path d="M1014 1197.33C1010.97 1199.5 1007.5 1201.66 1004.47 1203.83C1001 1206 997.967 1208.16 994.5 1209.9C991.467 1211.63 988.867 1213.36 985.833 1215.1C985.4 1215.53 984.967 1215.53 984.534 1215.96C974.567 1222.03 964.167 1227.66 953.767 1232.86C950.733 1234.6 947.267 1236.33 944.233 1237.63C944.233 1237.63 943.8 1238.06 943.367 1238.06C939.9 1239.8 936.433 1241.53 932.967 1243.26C926.033 1246.73 918.667 1249.76 911.733 1252.8C908.267 1254.53 904.367 1255.83 900.9 1257.13C897.433 1258.43 893.533 1260.16 890.067 1261.46C886.6 1262.76 882.7 1264.5 879.233 1265.8C879.233 1265.8 879.233 1265.8 878.8 1265.8C875.333 1267.1 871.433 1268.4 867.967 1269.7C860.167 1272.3 851.933 1274.9 844.133 1277.5C841.533 1278.36 838.5 1279.23 835.9 1280.1C827.667 1282.7 819.433 1284.86 811.2 1286.6C808.167 1287.46 805.133 1287.9 801.667 1288.76C793.867 1290.5 785.633 1292.23 777.833 1293.96C776.1 1294.4 774.8 1294.4 773.067 1294.83C770.467 1295.26 767.433 1295.7 764.833 1296.13C760.933 1296.56 757.467 1297.43 753.567 1297.86C751.833 1298.3 750.1 1298.3 748.367 1298.73C746.2 1299.16 743.6 1299.6 741 1299.6C734.067 1300.46 726.7 1301.33 719.767 1302.2C717.6 1302.63 715 1302.63 712.833 1303.06H712.4C709.367 1303.5 706.333 1303.5 703.3 1303.93C700.267 1304.36 697.233 1304.36 694.2 1304.36C692.467 1304.36 690.3 1304.8 688.567 1304.8C685.1 1304.8 682.067 1305.23 679.033 1305.23C674.7 1305.23 670.8 1305.66 666.467 1305.66C662.133 1305.66 658.233 1305.66 653.9 1305.66C650.867 1305.66 647.833 1305.66 644.8 1305.66C462.367 1303.06 297.7 1225.5 180.7 1102.43C180.7 1102.43 180.7 1102 180.267 1102C193.7 1075.56 243.534 1027.9 295.534 988.465C361.4 938.632 454.567 907.865 454.567 907.865C454.567 907.865 515.667 897.898 742.3 945.132C915.2 981.532 988.867 1129.3 1014 1197.33Z" fill="#F7D3B5"/>
<path d="M790.4 1065.16C781.3 1109.8 722.367 1136.23 623.134 1096.36C501.367 1046.96 454.567 907.865 454.567 907.865C448.067 808.198 432.9 722.832 432.9 722.832C573.734 710.698 740.134 875.365 740.134 875.365L759.2 956.832C760.934 963.765 764.4 969.832 769.6 974.165C778.7 989.765 796.467 1036.56 790.4 1065.16Z" fill="#F7D3B5"/>
<path d="M769.6 974.599C686.833 970.265 625.733 958.132 560.3 840.699C615.767 889.665 681.2 908.299 750.1 916.965L759.2 956.832C760.933 964.199 764.4 970.265 769.6 974.599Z" fill="#EFBDA5"/>
<path d="M940.767 452.432C948.567 488.832 952.467 518.298 931.233 615.365C910 712.432 950.733 809.498 848.467 898.332C779.567 958.132 659.1 969.398 562.9 903.965C530.4 881.865 500.5 851.098 476.233 810.798C457.167 779.165 435.067 749.265 410.367 721.965C376.133 684.698 334.967 609.732 355.333 477.132C388.267 261.332 601.9 236.632 728 260.465C854.1 284.298 919.533 356.232 940.767 452.432Z" fill="#F7D3B5"/>
<path d="M526.067 621.865C526.067 621.865 512.633 556.865 449.367 564.665C394.767 571.598 375.7 702.465 499.633 738.865" fill="#F7D3B5"/>
<path d="M495.734 679.498C495.734 679.498 480.134 669.532 481.867 652.198C484.467 631.832 481.867 619.265 472.334 615.365C448.501 605.398 443.734 633.132 444.601 636.598" stroke="#090806" stroke-width="13" stroke-miterlimit="10" stroke-linecap="round" stroke-linejoin="round"/>
<path d="M826.367 721.532C826.367 721.532 842.833 722.398 858.433 703.765C867.1 693.365 874.467 680.365 869.7 676.465C864.933 672.132 786.5 684.265 781.3 694.665C776.1 705.065 806.433 721.532 826.367 721.532Z" fill="#EFBDA5"/>
<path d="M839.367 575.932C839.367 575.932 840.234 617.098 866.667 663.032C878.367 683.398 860.601 716.765 822.034 722.398" stroke="#090806" stroke-width="13" stroke-miterlimit="10" stroke-linecap="round" stroke-linejoin="round"/>
<path opacity="0.42" d="M604.501 743.632C629.151 743.632 649.134 727.141 649.134 706.799C649.134 686.456 629.151 669.965 604.501 669.965C579.85 669.965 559.867 686.456 559.867 706.799C559.867 727.141 579.85 743.632 604.501 743.632Z" fill="#ED938A"/>
<path opacity="0.42" d="M924.3 670.832C923 695.098 923.434 718.932 921.7 742.765C902.634 738.432 888.767 724.132 888.767 707.232C888.767 689.032 903.933 674.298 924.3 670.832Z" fill="#ED938A"/>
<path d="M905.232 1030.03C872.299 1000.13 828.966 965.034 758.766 946.834C681.199 926.467 640.899 970.234 578.932 964.167C545.566 960.7 490.966 895.7 454.132 905.233C408.632 917.367 358.366 941.634 297.699 983.667C284.699 992.767 173.332 1067.3 134.766 1189.07C99.6657 1299.13 90.999 1450.8 90.1323 1501.07H1077.27C1077.7 1189.93 939.466 1061.23 905.232 1030.03Z" fill="#99BADD"/>
<path d="M439.832 956.367C439.832 956.367 431.599 884.434 438.965 861.467C439.832 858.434 448.932 853.234 448.932 853.234C448.932 853.234 448.932 893.534 546.432 921.267C649.132 950.3 763.532 941.634 784.765 932.534C784.765 932.534 785.199 992.334 773.932 1014.87C756.599 1049.53 618.799 1042.17 535.165 1013.57C461.932 988.434 439.832 956.367 439.832 956.367Z" fill="#99BADD"/>
<g opacity="0.25">
<g opacity="0.25">
<g opacity="0.25">
<g opacity="0.25">
<path opacity="0.25" d="M36.3994 1010.97C124.366 962.434 112.666 1012.7 240.499 988C295.099 977.6 356.633 929.934 435.066 926.467C494.866 923.867 561.166 963.734 634.833 968.934C696.366 973.267 767.433 941.634 838.499 953.334C900.466 963.3 957.666 1015.3 1027 1032.2" stroke="#6D5F5E" stroke-width="21.7052" stroke-miterlimit="10" stroke-linecap="round" stroke-linejoin="round"/>
</g>
<g opacity="0.25">
<path opacity="0.25" d="M38.1323 1060.37C133.032 1020.93 117.866 1070.77 247.866 1049.53C304.632 1040.43 368.766 992.334 448.066 988.867C510.032 986.267 578.066 1026.57 653.032 1030.47C716.732 1033.93 788.666 999.7 861.032 1009.67C925.166 1018.33 985.399 1070.33 1056.03 1085.5" stroke="#6D5F5E" stroke-width="21.7052" stroke-miterlimit="10" stroke-linecap="round" stroke-linejoin="round"/>
</g>
<g opacity="0.25">
<path opacity="0.25" d="M39.8665 1109.77C140.4 1078.57 122.2 1127.53 254.8 1110.2C313.3 1102.4 380.033 1054.3 460.633 1050.83C524.333 1048.23 594.966 1089.4 670.8 1092.43C736.666 1095.03 809.466 1058.2 883.566 1066.43C949.866 1073.8 1013.13 1125.37 1085.5 1138.37" stroke="#6D5F5E" stroke-width="21.7052" stroke-miterlimit="10" stroke-linecap="round" stroke-linejoin="round"/>
</g>
<g opacity="0.25">
<path opacity="0.25" d="M41.5994 1159.17C146.899 1135.77 126.533 1183.87 261.733 1170C322.399 1163.5 391.733 1115.4 473.633 1112.37C539.499 1109.77 611.866 1152.23 689.433 1153.97C757.466 1155.7 831.566 1116.7 906.966 1123.2C975.866 1129.27 1042.17 1179.97 1115.83 1191.23" stroke="#6D5F5E" stroke-width="21.7052" stroke-miterlimit="10" stroke-linecap="round" stroke-linejoin="round"/>
</g>
<g opacity="0.25">
<path opacity="0.25" d="M42.8994 1209C152.099 1192.1 129.999 1240.2 267.366 1229.37C330.199 1224.6 402.133 1176.07 485.333 1173.47C553.366 1171.3 627.899 1214.63 706.333 1215.93C776.533 1216.8 851.933 1175.63 928.633 1180.4C999.699 1184.73 1069.47 1235 1144.87 1243.67" stroke="#6D5F5E" stroke-width="21.7052" stroke-miterlimit="10" stroke-linecap="round" stroke-linejoin="round"/>
</g>
<g opacity="0.25">
<path opacity="0.25" d="M43.7659 1258.83C156.433 1248 133.033 1295.67 272.566 1288.3C337.566 1284.83 412.099 1236.73 497.033 1235C567.233 1233.27 643.499 1277.9 723.666 1278.33C796.033 1278.77 873.166 1235 950.732 1238.47C1024.83 1241.5 1097.63 1290.9 1173.9 1296.53" stroke="#6D5F5E" stroke-width="21.7052" stroke-miterlimit="10" stroke-linecap="round" stroke-linejoin="round"/>
</g>
<g opacity="0.25">
<path opacity="0.25" d="M45.0662 1309.1C160.766 1303.9 136.066 1351.13 278.633 1347.23C345.366 1345.5 422.933 1297.4 509.599 1296.1C581.966 1295.23 660.399 1340.73 741.866 1340.73C816.833 1340.73 895.266 1295.23 974.133 1296.53C1050.83 1297.83 1127.1 1346.37 1204.67 1349.4" stroke="#6D5F5E" stroke-width="21.7052" stroke-miterlimit="10" stroke-linecap="round" stroke-linejoin="round"/>
</g>
</g>
</g>
</g>
<path d="M315.466 975C332.366 994.067 401.699 1076.83 426.399 1170.43L482.299 1179.53C482.299 1179.53 422.499 1030.47 340.166 957.667C336.699 954.634 331.499 954.2 327.166 955.934C323.699 957.667 319.366 960.7 315.466 965.9C312.866 968.934 313.299 972.834 315.466 975Z" fill="#423232"/>
<path d="M844.566 1150.93C844.566 1150.93 851.933 1039.13 796.033 960.267C796.033 960.267 799.5 956.8 819 966.334C832.866 972.834 873.6 1028.73 877.5 1141.83C877.933 1141.83 849.333 1151.37 844.566 1150.93Z" fill="#423232"/>
<path d="M413.399 1092.87C413.399 1092.87 733.633 1178.23 871.866 1083.77C871.866 1083.77 943.799 1225.47 971.966 1501.07H354.899C354.899 1501.07 405.166 1434.77 413.399 1092.87Z" fill="#423232"/>
<path d="M471.899 1198.6C483.387 1198.6 492.699 1189.29 492.699 1177.8C492.699 1166.31 483.387 1157 471.899 1157C460.412 1157 451.099 1166.31 451.099 1177.8C451.099 1189.29 460.412 1198.6 471.899 1198.6Z" fill="white"/>
<path d="M856.7 1165.67C866.752 1165.67 874.9 1157.52 874.9 1147.47C874.9 1137.42 866.752 1129.27 856.7 1129.27C846.648 1129.27 838.5 1137.42 838.5 1147.47C838.5 1157.52 846.648 1165.67 856.7 1165.67Z" fill="white"/>
<path d="M699.71 590.249C699.71 590.683 699.71 591.116 699.71 591.116L699.277 603.249C698.843 613.649 690.177 621.449 679.777 621.016C669.377 620.583 661.577 611.483 662.443 601.516L662.877 589.383C662.877 587.216 663.743 584.616 664.61 582.883L699.277 584.616C699.277 586.349 699.71 588.083 699.71 590.249Z" fill="#090806"/>
<path d="M880.841 599.783L880.408 611.049C879.975 620.583 871.742 627.949 862.208 627.516C852.675 627.083 845.308 618.849 845.742 609.316L846.175 598.049C846.175 595.883 846.608 593.716 847.475 591.983L879.975 593.283C880.842 595.449 880.841 597.616 880.841 599.783Z" fill="#090806"/>
<path d="M743.042 530.882C752.576 532.182 759.942 522.216 756.476 512.682C754.742 507.482 751.709 502.716 746.942 499.682C732.209 490.582 677.176 489.716 648.142 510.516C622.576 529.582 699.709 524.816 743.042 530.882Z" fill="#423232"/>
<path d="M863.074 535.649C855.274 535.649 850.508 525.682 854.408 517.449C856.574 513.116 859.608 509.216 863.941 507.049C877.374 500.549 913.341 504.449 929.374 526.549C943.674 546.049 899.041 535.216 863.074 535.649Z" fill="#423232"/>
<path d="M727.875 585.482L698.842 584.182L664.175 582.882L656.375 582.449" stroke="#423232" stroke-width="13" stroke-miterlimit="10" stroke-linecap="round" stroke-linejoin="round"/>
<path d="M899.042 594.149L879.975 593.283L847.475 591.983H846.175" stroke="#423232" stroke-width="13" stroke-miterlimit="10" stroke-linecap="round" stroke-linejoin="round"/>
<path d="M793.697 770.764C768.997 785.497 725.231 769.464 704.864 744.764" stroke="#423232" stroke-width="13" stroke-miterlimit="10" stroke-linecap="round" stroke-linejoin="round"/>
<path d="M942.818 447.316C941.518 440.816 939.785 433.883 937.618 427.383C935.451 420.883 930.251 415.249 923.318 413.949C900.785 410.049 871.318 433.016 840.118 428.683C740.885 415.249 682.385 361.949 589.218 397.916C493.018 435.183 547.618 590.316 527.251 614.149C523.785 602.016 506.885 552.616 451.418 559.549C398.985 566.049 379.051 687.383 487.385 728.983C486.518 752.816 443.618 775.349 408.951 733.749C374.285 692.149 304.951 584.249 351.751 426.516C398.551 268.783 610.451 186.449 807.618 266.616C841.418 280.483 861.784 314.716 891.251 320.349C1165.12 372.349 976.185 631.483 967.951 701.249C965.785 725.083 949.318 478.516 942.818 447.316Z" fill="#423232"/>
<path d="M487.818 729.416C487.818 729.416 486.951 764.949 450.551 830.816C450.551 830.816 441.885 794.416 422.818 761.049C404.185 727.683 383.385 713.383 360.418 643.616C337.451 573.849 363.885 605.049 384.685 633.649C405.918 662.683 419.785 733.749 487.818 729.416Z" fill="#423232"/>
<path d="M870.885 402.25C870.885 402.25 914.218 317.316 757.351 240.616C600.485 163.916 439.718 217.65 343.085 207.25C343.085 207.25 452.285 280.916 563.651 299.983C675.018 319.05 870.885 402.25 870.885 402.25Z" fill="#423232"/>
<path d="M561.484 250.149C561.484 250.149 350.451 247.983 263.784 474.183C263.784 474.183 349.584 420.449 472.651 409.183C595.718 397.916 615.218 261.416 561.484 250.149Z" fill="#423232"/>
<path d="M893.418 412.216C893.418 412.216 1026.45 365.416 943.685 253.183C847.918 124.049 539.385 174.316 539.385 174.316C539.385 174.316 650.751 203.783 697.118 268.349C743.051 333.349 857.885 439.949 893.418 412.216Z" fill="#423232"/>
<path d="M797.218 420.45C797.218 420.45 709.684 373.65 656.384 419.15C589.651 476.35 606.984 757.15 606.984 757.15C606.984 757.15 528.551 615.45 529.851 482.416C531.151 349.383 592.251 316.016 656.384 321.65C720.518 327.283 788.984 399.65 797.218 420.45Z" fill="#423232"/>
<path d="M847.918 429.549C847.918 429.549 690.618 293.916 682.385 533.549C682.385 533.549 632.552 483.283 672.852 369.316C713.152 255.349 839.252 346.349 847.918 429.549Z" fill="#423232"/>
<path d="M477.159 636.126C477.159 636.126 442.492 630.926 445.092 679.459C446.392 704.159 446.392 717.593 445.959 724.526C445.525 729.293 448.559 733.626 452.892 735.359C458.092 737.526 463.725 735.359 466.325 730.159C470.225 723.226 474.559 713.693 474.559 705.893C474.559 692.893 488.425 681.193 488.425 681.193C488.425 681.193 475.859 670.359 477.159 636.126Z" fill="white"/>
<path d="M582.025 1471.59C578.558 1467.69 442.492 1234.99 462.858 1147.46C476.725 1087.23 458.525 1017.89 442.492 956.793C435.992 931.659 429.925 908.259 426.458 887.459C420.392 851.493 424.725 817.259 439.458 785.626C455.492 750.093 452.892 719.326 452.892 718.893L461.558 718.026C461.558 719.326 464.158 751.826 447.258 789.093C433.392 818.993 429.492 851.926 435.125 886.159C438.592 906.526 444.658 929.926 451.158 955.059C467.625 1017.03 485.825 1087.66 471.525 1150.06C452.458 1233.26 588.092 1465.96 588.958 1466.83L582.025 1471.59Z" fill="white"/>
<path d="M446.392 704.593C446.826 714.126 446.392 720.626 446.392 724.526C445.959 729.292 448.992 733.626 453.326 735.359C458.526 737.526 464.159 735.359 466.759 730.159C470.659 723.226 474.992 713.692 474.992 705.892C474.992 705.459 474.992 704.592 474.992 704.159C465.892 707.626 455.492 710.226 446.392 704.593Z" fill="#E5E5E5"/>
<path d="M854.159 992.759C851.125 1012.69 850.692 1044.33 849.825 1081.16C848.525 1152.23 806.492 1429.13 786.125 1472.89L778.325 1469.43C797.825 1426.96 839.859 1151.36 841.159 1081.16C842.025 1044.33 842.459 1012.26 845.492 991.459C851.992 947.693 847.225 914.759 844.625 900.893C845.925 899.593 847.225 898.726 848.525 897.426C849.825 896.559 850.692 895.259 851.992 894.393C854.592 905.659 861.959 941.626 854.159 992.759Z" fill="white"/>
</g>
</svg>
