<?xml version="1.0" encoding="UTF-8" standalone="no"?><svg width="1300" height="1300" viewBox="0 0 1300 1300" fill="none" xmlns="http://www.w3.org/2000/svg">
<path d="M650 1300C290.71 1300 0 1008.86 0 650C0 290.71 291.141 0 650 0C1009.29 0 1300 291.141 1300 650C1300.43 1009.29 1009.29 1300 650 1300Z" fill="#F4DA92"/>
<mask id="mask0_26_635" style="mask-type:alpha" maskUnits="userSpaceOnUse" x="0" y="0" width="1301" height="1300">
<path d="M650 1300C290.71 1300 0 1008.86 0 650C0 290.71 291.141 0 650 0C1009.29 0 1300 291.141 1300 650C1300.43 1009.29 1009.29 1300 650 1300Z" fill="#F7C0B5"/>
</mask>
<g mask="url(#mask0_26_635)">
<path d="M1015.73 1197.33C1012.7 1199.5 1009.23 1201.66 1006.2 1203.83C1002.73 1206 999.698 1208.16 996.231 1209.9C993.198 1211.63 990.598 1213.36 987.564 1215.1C987.131 1215.53 986.698 1215.53 986.264 1215.96C976.298 1222.03 965.898 1227.66 955.498 1232.86C952.464 1234.6 948.998 1236.33 945.964 1237.63C945.964 1237.63 945.531 1238.06 945.098 1238.06C941.631 1239.8 938.164 1241.53 934.698 1243.26C927.764 1246.73 920.398 1249.76 913.464 1252.8C909.998 1254.53 906.098 1255.83 902.631 1257.13C899.164 1258.43 895.264 1260.16 891.798 1261.46C888.331 1262.76 884.431 1264.5 880.964 1265.8C880.964 1265.8 880.964 1265.8 880.531 1265.8C877.064 1267.1 873.164 1268.4 869.698 1269.7C861.898 1272.3 853.664 1274.9 845.864 1277.5C843.264 1278.36 840.231 1279.23 837.631 1280.1C829.398 1282.7 821.164 1284.86 812.931 1286.6C809.898 1287.46 806.864 1287.9 803.398 1288.76C795.598 1290.5 787.364 1292.23 779.564 1293.96C777.831 1294.4 776.531 1294.4 774.798 1294.83C772.198 1295.26 769.164 1295.7 766.564 1296.13C762.664 1296.56 759.198 1297.43 755.298 1297.86C753.564 1298.3 751.831 1298.3 750.098 1298.73C747.931 1299.16 745.331 1299.6 742.731 1299.6C735.798 1300.46 728.431 1301.33 721.498 1302.2C719.331 1302.63 716.731 1302.63 714.564 1303.06H714.131C711.098 1303.5 708.064 1303.5 705.031 1303.93C701.998 1304.36 698.964 1304.36 695.931 1304.36C694.198 1304.36 692.031 1304.8 690.298 1304.8C686.831 1304.8 683.798 1305.23 680.764 1305.23C676.431 1305.23 672.531 1305.66 668.198 1305.66C663.864 1305.66 659.964 1305.66 655.631 1305.66C652.598 1305.66 649.564 1305.66 646.531 1305.66C464.098 1303.06 299.431 1225.5 182.431 1102.43C182.431 1102.43 182.431 1102 181.998 1102C195.431 1075.56 245.264 1027.9 297.264 988.465C363.131 938.632 456.298 907.865 456.298 907.865C456.298 907.865 517.398 897.898 744.031 945.132C916.931 981.532 990.598 1129.3 1015.73 1197.33Z" fill="#FEE4BF"/>
<path d="M792.131 1065.16C783.031 1109.8 724.098 1136.23 624.865 1096.36C503.098 1046.96 456.298 907.865 456.298 907.865C449.798 808.198 434.631 722.832 434.631 722.832C575.465 710.698 741.865 875.365 741.865 875.365L760.931 956.832C762.665 963.765 766.131 969.832 771.331 974.165C780.431 989.765 798.198 1036.56 792.131 1065.16Z" fill="#FEE4BF"/>
<path d="M771.331 974.599C688.564 970.265 627.464 958.132 562.031 840.699C617.497 889.665 682.931 908.299 751.831 916.965L760.931 956.832C762.664 964.199 766.131 970.265 771.331 974.599Z" fill="#EFBDA5"/>
<path d="M942.498 452.432C950.298 488.832 954.198 518.298 932.964 615.365C911.731 712.432 952.464 809.498 850.198 898.332C781.298 958.132 660.831 969.398 564.631 903.965C532.131 881.865 502.231 851.098 477.964 810.798C458.898 779.165 436.798 749.265 412.098 721.965C377.864 684.698 336.698 609.732 357.064 477.132C389.998 261.332 603.631 236.632 729.731 260.465C855.831 284.298 921.264 356.232 942.498 452.432Z" fill="#FEE4BF"/>
<path d="M527.797 621.865C527.797 621.865 514.364 556.865 451.097 564.665C396.497 571.598 377.431 702.465 501.364 738.865" fill="#FEE4BF"/>
<path d="M497.465 679.498C497.465 679.498 481.865 669.532 483.598 652.198C486.198 631.832 483.598 619.265 474.065 615.365C450.231 605.398 445.465 633.132 446.331 636.598" stroke="#090806" stroke-width="13" stroke-miterlimit="10" stroke-linecap="round" stroke-linejoin="round"/>
<path d="M828.097 721.532C828.097 721.532 844.564 722.398 860.164 703.765C868.831 693.365 876.197 680.365 871.431 676.465C866.664 672.132 788.231 684.265 783.031 694.665C777.831 705.065 808.164 721.532 828.097 721.532Z" fill="#EFBDA5"/>
<path d="M841.098 575.932C841.098 575.932 841.965 617.098 868.398 663.032C880.098 683.398 862.331 716.765 823.765 722.398" stroke="#090806" stroke-width="13" stroke-miterlimit="10" stroke-linecap="round" stroke-linejoin="round"/>
<path opacity="0.42" d="M606.231 743.632C630.882 743.632 650.865 727.141 650.865 706.799C650.865 686.456 630.882 669.965 606.231 669.965C581.581 669.965 561.598 686.456 561.598 706.799C561.598 727.141 581.581 743.632 606.231 743.632Z" fill="#F2A5B2"/>
<path opacity="0.42" d="M926.031 670.832C924.731 695.098 925.164 718.932 923.431 742.765C904.364 738.432 890.498 724.132 890.498 707.232C890.498 689.032 905.664 674.298 926.031 670.832Z" fill="#F2A5B2"/>
<path d="M389.881 829.4C389.881 829.4 430.181 819.867 447.081 818.567L452.281 865.8C452.715 865.367 390.315 841.534 389.881 829.4Z" fill="#321E1E"/>
<path d="M1158.61 1465.1H63.1484C63.1484 1465.1 69.6484 1264.03 135.515 1120.6C199.648 981.933 374.282 921.7 454.882 900.9C454.882 903.067 455.315 904.8 455.315 906.967C455.315 906.967 502.115 1046.07 623.882 1095.47C723.115 1135.77 782.048 1108.9 791.148 1064.27C796.782 1035.67 779.015 988.867 769.915 973.7C764.715 969.367 761.248 962.867 759.515 956.367L756.048 942.067C766.882 939.9 777.282 936.867 787.248 932.967C843.148 947.7 927.215 982.8 1026.45 1066C1138.68 1159.6 1158.61 1465.1 1158.61 1465.1Z" fill="#321E1E"/>
<path d="M277.648 1465.1L258.148 1304.33" stroke="white" stroke-width="13" stroke-miterlimit="10" stroke-linecap="round" stroke-linejoin="round"/>
<path d="M1034.25 1249.73C1034.25 1249.73 1021.25 1281.37 1025.15 1313C1029.05 1344.63 1040.32 1391 1024.28 1465.1" stroke="white" stroke-width="13" stroke-miterlimit="10" stroke-linecap="round" stroke-linejoin="round"/>
<path d="M590.515 1176.07C350.882 1106.73 290.648 965.901 290.648 965.901C290.648 965.901 328.348 942.501 346.115 918.234C356.948 903.501 454.448 886.601 454.448 886.601C456.182 905.234 454.448 886.601 455.748 906.967C455.748 906.967 502.548 1046.07 624.315 1095.47C723.548 1135.77 782.482 1108.9 791.582 1064.27C797.215 1035.67 779.448 988.867 770.348 973.701C765.148 969.367 761.682 962.867 759.948 956.367L756.482 942.067C781.182 936.867 804.582 927.334 824.948 914.767C825.815 916.067 826.248 917.367 826.682 918.667C835.782 940.767 863.515 960.701 863.515 960.701C921.582 1097.63 834.482 1246.7 590.515 1176.07Z" fill="#321E1E"/>
<path d="M932.416 997.967C932.416 997.967 952.349 988.434 972.282 990.6C992.215 992.767 1087.12 1069.47 1096.22 1085.5C1105.75 1101.53 1105.32 1152.67 1094.05 1159.17C1083.22 1165.23 1076.28 1151.37 1076.28 1151.37C1076.28 1151.37 1084.52 1104.57 1075.42 1095.9C1066.32 1087.23 978.349 1013.57 975.315 1013.13C972.282 1012.7 955.815 1026.57 955.815 1026.57L932.416 997.967Z" fill="#321E1E"/>
<path d="M277.649 987.134C277.649 987.134 238.649 970.667 221.749 973.267C204.849 975.867 117.316 1051.27 109.082 1084.63C100.849 1118 128.582 1178.23 128.582 1178.23L148.082 1147.47C148.082 1147.47 134.216 1101.53 138.549 1083.33C142.882 1065.13 212.216 1002.73 219.149 1002.73C226.082 1002.73 267.682 1021.37 267.682 1021.37L277.649 987.134Z" fill="#321E1E"/>
<path d="M457.916 1011.83C499.516 1091.57 582.715 1197.73 721.815 1247.57C847.049 1292.63 839.249 1141.4 821.049 1050.83C696.249 1078.13 571.016 1080.3 457.916 1011.83Z" fill="#D5CEA3"/>
<path d="M821.048 1051.27C816.282 1027.43 810.648 1007.93 806.748 997.1C798.082 973.7 785.082 952.9 773.382 937.3C767.748 939.033 762.115 940.333 756.482 941.633L759.948 955.933C761.682 962.867 765.148 968.933 770.348 973.267C771.215 975 772.515 977.167 773.815 979.767C675.448 1017.9 559.315 967.633 559.315 967.633C524.215 965.9 526.815 1000.57 543.282 1041.73C480.882 982.367 455.748 906.967 455.748 906.967C454.882 893.967 454.015 881.4 452.715 868.833C452.715 868.833 420.648 886.6 426.282 926.467C428.882 943.367 438.848 975 458.348 1011.83C571.015 1080.3 696.248 1078.13 821.048 1051.27Z" fill="#AA5656"/>
<path d="M389.881 829.4C389.881 829.4 490.848 876.2 572.315 897.867C580.115 900.034 586.181 906.967 587.048 915.2C590.081 944.667 598.315 1013.57 605.248 1040C614.348 1074.23 790.715 1248.43 792.448 1270.53C794.181 1292.63 614.348 1287.43 507.315 1159.17C399.848 1030.9 408.081 1007.5 408.081 1007.5C408.081 1007.5 389.881 884.434 389.881 829.4Z" fill="#321E1E"/>
<path d="M870.448 875.767L898.182 887.467C906.848 890.934 911.182 900.901 908.148 910.001C895.582 948.134 864.382 1043.03 863.082 1075.97C861.348 1117.57 775.548 1384.93 775.548 1384.93C775.548 1384.93 723.115 1316.03 761.682 1248C792.015 1194.27 793.748 1079.43 790.715 1064.27C786.815 1044.33 770.348 997.534 761.248 968.067C756.482 952.034 755.615 942.067 755.615 942.067C755.615 942.067 815.415 932.101 870.448 875.767Z" fill="#321E1E"/>
<path d="M548.049 946.834C554.989 946.834 560.615 940.431 560.615 932.533C560.615 924.636 554.989 918.234 548.049 918.234C541.108 918.234 535.482 924.636 535.482 932.533C535.482 940.431 541.108 946.834 548.049 946.834Z" fill="white"/>
<path d="M748.249 1211.17C716.615 1177.37 628.215 1097.2 601.348 1079.43C585.748 1069.03 568.849 1061.23 551.082 1055.6C438.415 1019.2 401.582 959.834 401.582 959.834L396.815 918.234" stroke="#D5CEA3" stroke-width="13" stroke-miterlimit="10" stroke-linecap="round" stroke-linejoin="round"/>
<path d="M768.615 1235C768.615 1235 758.215 1286.57 762.548 1311.7C766.882 1336.83 770.348 1411.8 770.348 1411.8" stroke="#D5CEA3" stroke-width="13" stroke-miterlimit="10" stroke-linecap="round" stroke-linejoin="round"/>
<path d="M888.215 973.7C888.215 973.7 866.981 1048.23 857.015 1077.7C846.615 1107.17 799.381 1166.1 786.381 1194.27" stroke="#D5CEA3" stroke-width="13" stroke-miterlimit="10" stroke-linecap="round" stroke-linejoin="round"/>
<path d="M831.448 1228.93C839.346 1228.93 845.748 1222.53 845.748 1214.63C845.748 1206.74 839.346 1200.33 831.448 1200.33C823.551 1200.33 817.148 1206.74 817.148 1214.63C817.148 1222.53 823.551 1228.93 831.448 1228.93Z" fill="white"/>
<path d="M683.943 619.439C673.543 619.006 665.743 610.339 666.61 599.939L667.043 587.806C667.476 577.406 676.143 569.606 686.543 570.473C696.943 570.906 704.743 579.573 703.876 589.973L703.443 602.106C703.01 612.073 694.343 619.873 683.943 619.439Z" fill="#090806"/>
<path d="M866.375 625.939C856.842 625.506 849.475 617.272 849.909 607.739L850.342 596.472C850.775 586.939 859.009 579.572 868.542 580.006C878.075 580.439 885.442 588.672 885.009 598.206L884.575 609.472C884.142 619.006 875.909 626.372 866.375 625.939Z" fill="#090806"/>
<path d="M725.977 594.306C725.977 594.306 714.71 578.273 695.21 575.239C679.177 572.639 661.41 580.439 658.81 589.539" stroke="#090806" stroke-width="13" stroke-miterlimit="10" stroke-linecap="round" stroke-linejoin="round"/>
<path d="M853.809 598.206C853.809 598.206 853.809 584.339 873.743 584.339C890.209 584.339 897.143 599.506 897.143 599.506" stroke="#090806" stroke-width="13" stroke-miterlimit="10" stroke-linecap="round" stroke-linejoin="round"/>
<path d="M743.743 524.539C752.843 527.573 761.942 519.339 760.209 509.373C759.342 504.173 757.176 498.973 752.843 495.073C739.843 483.373 686.109 472.973 653.609 488.139C625.009 502.006 702.143 510.673 743.743 524.539Z" fill="#090806"/>
<path d="M873.308 531.473C865.941 534.073 858.141 526.273 859.441 517.173C859.874 512.406 861.608 507.639 865.074 504.173C875.474 493.773 911.008 485.539 933.541 501.573C953.041 515.006 907.108 518.906 873.308 531.473Z" fill="#090806"/>
<path d="M793.697 770.764C768.997 785.497 725.231 769.464 704.864 744.764" stroke="#090806" stroke-width="13" stroke-miterlimit="10" stroke-linecap="round" stroke-linejoin="round"/>
<path d="M942.818 447.316C941.518 440.816 939.785 433.883 937.618 427.383C935.451 420.883 930.251 415.249 923.318 413.949C900.785 410.049 871.318 433.016 840.118 428.683C740.885 415.249 682.385 361.949 589.218 397.916C493.018 435.183 547.618 590.316 527.251 614.149C523.785 602.016 506.885 552.616 451.418 559.549C398.985 566.049 379.051 687.383 487.385 728.983C486.518 752.816 443.618 775.349 408.951 733.749C374.285 692.149 304.951 584.249 351.751 426.516C398.551 268.783 610.451 186.449 807.618 266.616C841.418 280.483 861.784 314.716 891.251 320.349C1165.12 372.349 976.185 631.483 967.951 701.249C965.785 725.083 949.318 478.516 942.818 447.316Z" fill="#272219"/>
<path d="M487.818 729.416C487.818 729.416 486.951 764.949 450.551 830.816C450.551 830.816 441.885 794.416 422.818 761.049C404.185 727.683 383.385 713.383 360.418 643.616C337.451 573.849 363.885 605.049 384.685 633.649C405.918 662.683 419.785 733.749 487.818 729.416Z" fill="#272219"/>
<path d="M870.885 402.25C870.885 402.25 914.218 317.316 757.351 240.616C600.485 163.916 439.718 217.65 343.085 207.25C343.085 207.25 452.285 280.916 563.651 299.983C675.018 319.05 870.885 402.25 870.885 402.25Z" fill="#272219"/>
<path d="M561.484 250.149C561.484 250.149 350.451 247.983 263.784 474.183C263.784 474.183 349.584 420.449 472.651 409.183C595.718 397.916 615.218 261.416 561.484 250.149Z" fill="#272219"/>
<path d="M893.418 412.216C893.418 412.216 1026.45 365.416 943.685 253.183C847.918 124.049 539.385 174.316 539.385 174.316C539.385 174.316 650.751 203.783 697.118 268.349C743.051 333.349 857.885 439.949 893.418 412.216Z" fill="#272219"/>
<path d="M797.218 420.45C797.218 420.45 709.684 373.65 656.384 419.15C589.651 476.35 606.984 757.15 606.984 757.15C606.984 757.15 528.551 615.45 529.851 482.416C531.151 349.383 592.251 316.016 656.384 321.65C720.518 327.283 788.984 399.65 797.218 420.45Z" fill="#423232"/>
<path d="M847.918 429.549C847.918 429.549 690.618 293.916 682.385 533.549C682.385 533.549 632.552 483.283 672.852 369.316C713.152 255.349 839.252 346.349 847.918 429.549Z" fill="#423232"/>
<path opacity="0.6" d="M582.174 675.397C582.174 675.397 588.241 688.397 606.441 690.13C624.641 691.864 845.641 641.597 853.441 642.897C861.241 644.197 874.241 648.964 874.241 648.964L925.374 681.464L926.241 658.93C926.241 658.93 897.641 623.397 827.874 626.864C758.107 630.33 582.174 675.397 582.174 675.397Z" fill="#B7AEA9"/>
<path d="M592.574 469.997C575.674 469.563 561.374 482.997 561.374 499.897V539.33C561.374 559.263 545.341 575.73 524.974 575.73H510.674L524.974 601.297C544.907 601.297 561.374 617.33 561.374 637.697V651.563C561.374 670.197 577.841 684.063 596.041 681.463L837.841 643.763C843.041 642.897 847.807 642.897 853.007 643.33L854.307 478.23L592.574 469.997Z" fill="#5E4949"/>
<path d="M944.441 480.397L854.741 477.797L853.441 642.897C860.808 643.763 867.741 645.497 874.241 648.963L922.774 673.23C935.341 679.297 950.075 671.063 951.375 657.197L964.808 502.93C965.674 491.23 956.574 480.83 944.441 480.397Z" fill="#423232"/>
<path d="M657.14 538.897L908.04 544.53C921.907 544.963 932.74 557.097 931.007 570.963C929.707 583.097 919.74 592.197 907.607 592.197H656.707C643.274 592.197 632.44 580.93 632.874 567.497L633.307 561.863C633.74 548.43 644.574 538.897 657.14 538.897Z" fill="#E26076" stroke="#423232" stroke-width="13" stroke-miterlimit="10" stroke-linecap="round" stroke-linejoin="round"/>
<path d="M688.341 573.996H664.507C659.741 573.996 655.841 570.096 655.841 565.33C655.841 560.563 659.741 556.663 664.507 556.663H688.341C693.107 556.663 697.007 560.563 697.007 565.33C696.574 570.096 693.107 573.996 688.341 573.996Z" fill="white"/>
</g>
</svg>
