<?xml version="1.0" encoding="UTF-8" standalone="no"?><svg width="1300" height="1300" viewBox="0 0 1300 1300" fill="none" xmlns="http://www.w3.org/2000/svg">
<path d="M650 1300C290.71 1300 0 1008.86 0 650C0 290.71 291.141 0 650 0C1009.29 0 1300 291.141 1300 650C1300.43 1009.29 1009.29 1300 650 1300Z" fill="#F4DA92"/>
<mask id="mask0_26_635" style="mask-type:alpha" maskUnits="userSpaceOnUse" x="0" y="0" width="1301" height="1300">
<path d="M650 1300C290.71 1300 0 1008.86 0 650C0 290.71 291.141 0 650 0C1009.29 0 1300 291.141 1300 650C1300.43 1009.29 1009.29 1300 650 1300Z" fill="#F7C0B5"/>
</mask>
<g mask="url(#mask0_26_635)">
<path d="M1014 1197.33C1010.97 1199.5 1007.5 1201.66 1004.47 1203.83C1001 1206 997.967 1208.16 994.5 1209.9C991.467 1211.63 988.867 1213.36 985.833 1215.1C985.4 1215.53 984.967 1215.53 984.533 1215.96C974.567 1222.03 964.167 1227.66 953.767 1232.86C950.733 1234.6 947.267 1236.33 944.233 1237.63C944.233 1237.63 943.8 1238.06 943.367 1238.06C939.9 1239.8 936.433 1241.53 932.967 1243.26C926.033 1246.73 918.667 1249.76 911.733 1252.8C908.267 1254.53 904.367 1255.83 900.9 1257.13C897.433 1258.43 893.533 1260.16 890.067 1261.46C886.6 1262.76 882.7 1264.5 879.233 1265.8C879.233 1265.8 879.233 1265.8 878.8 1265.8C875.333 1267.1 871.433 1268.4 867.967 1269.7C860.167 1272.3 851.933 1274.9 844.133 1277.5C841.533 1278.36 838.5 1279.23 835.9 1280.1C827.667 1282.7 819.433 1284.86 811.2 1286.6C808.167 1287.46 805.133 1287.9 801.667 1288.76C793.867 1290.5 785.633 1292.23 777.833 1293.96C776.1 1294.4 774.8 1294.4 773.067 1294.83C770.467 1295.26 767.433 1295.7 764.833 1296.13C760.933 1296.56 757.467 1297.43 753.567 1297.86C751.833 1298.3 750.1 1298.3 748.367 1298.73C746.2 1299.16 743.6 1299.6 741 1299.6C734.067 1300.46 726.7 1301.33 719.767 1302.2C717.6 1302.63 715 1302.63 712.833 1303.06H712.4C709.367 1303.5 706.333 1303.5 703.3 1303.93C700.267 1304.36 697.233 1304.36 694.2 1304.36C692.467 1304.36 690.3 1304.8 688.567 1304.8C685.1 1304.8 682.067 1305.23 679.033 1305.23C674.7 1305.23 670.8 1305.66 666.467 1305.66C662.133 1305.66 658.233 1305.66 653.9 1305.66C650.867 1305.66 647.833 1305.66 644.8 1305.66C462.367 1303.06 297.7 1225.5 180.7 1102.43C180.7 1102.43 180.7 1102 180.267 1102C193.7 1075.56 243.534 1027.9 295.534 988.465C361.4 938.632 454.567 907.865 454.567 907.865C454.567 907.865 515.667 897.898 742.3 945.132C915.2 981.532 988.867 1129.3 1014 1197.33Z" fill="#F7D3B5"/>
<path d="M790.4 1065.16C781.3 1109.8 722.367 1136.23 623.134 1096.36C501.367 1046.96 454.567 907.865 454.567 907.865C448.067 808.198 432.9 722.832 432.9 722.832C573.734 710.698 740.134 875.365 740.134 875.365L759.2 956.832C760.934 963.765 764.4 969.832 769.6 974.165C778.7 989.765 796.467 1036.56 790.4 1065.16Z" fill="#F7D3B5"/>
<path d="M769.6 974.599C686.833 970.265 625.733 958.132 560.3 840.699C615.767 889.665 681.2 908.299 750.1 916.965L759.2 956.832C760.933 964.199 764.4 970.265 769.6 974.599Z" fill="#EFBDA5"/>
<path d="M940.767 452.432C948.567 488.832 952.467 518.298 931.233 615.365C910 712.432 950.733 809.498 848.467 898.332C779.567 958.132 659.1 969.398 562.9 903.965C530.4 881.865 500.5 851.098 476.233 810.798C457.167 779.165 435.067 749.265 410.367 721.965C376.133 684.698 334.967 609.732 355.333 477.132C388.267 261.332 601.9 236.632 728 260.465C854.1 284.298 919.533 356.232 940.767 452.432Z" fill="#F7D3B5"/>
<path d="M526.067 621.865C526.067 621.865 512.633 556.865 449.367 564.665C394.767 571.598 375.7 702.465 499.633 738.865" fill="#F7D3B5"/>
<path d="M495.734 679.498C495.734 679.498 480.134 669.532 481.867 652.198C484.467 631.832 481.867 619.265 472.334 615.365C448.501 605.398 443.734 633.132 444.601 636.598" stroke="#423232" stroke-width="13" stroke-miterlimit="10" stroke-linecap="round" stroke-linejoin="round"/>
<path d="M826.367 721.532C826.367 721.532 842.833 722.398 858.433 703.765C867.1 693.365 874.467 680.365 869.7 676.465C864.933 672.132 786.5 684.265 781.3 694.665C776.1 705.065 806.433 721.532 826.367 721.532Z" fill="#EFBDA5"/>
<path d="M839.367 575.932C839.367 575.932 840.234 617.098 866.667 663.032C878.367 683.398 860.601 716.765 822.034 722.398" stroke="#423232" stroke-width="13" stroke-miterlimit="10" stroke-linecap="round" stroke-linejoin="round"/>
<path opacity="0.42" d="M604.501 743.632C629.151 743.632 649.134 727.141 649.134 706.799C649.134 686.456 629.151 669.965 604.501 669.965C579.85 669.965 559.867 686.456 559.867 706.799C559.867 727.141 579.85 743.632 604.501 743.632Z" fill="#ED938A"/>
<path opacity="0.42" d="M924.3 670.832C923 695.098 923.434 718.932 921.7 742.765C902.634 738.432 888.767 724.132 888.767 707.232C888.767 689.032 903.933 674.298 924.3 670.832Z" fill="#ED938A"/>
<path d="M389.881 829.4C389.881 829.4 430.181 819.867 447.081 818.567L452.281 865.8C452.715 865.367 390.315 841.534 389.881 829.4Z" fill="#544646"/>
<path d="M1158.61 1465.1H63.1484C63.1484 1465.1 69.6484 1264.03 135.515 1120.6C199.648 981.933 374.282 921.7 454.882 900.9C454.882 903.067 455.315 904.8 455.315 906.967C455.315 906.967 502.115 1046.07 623.882 1095.47C723.115 1135.77 782.048 1108.9 791.148 1064.27C796.782 1035.67 779.015 988.867 769.915 973.7C764.715 969.367 761.248 962.867 759.515 956.367L756.048 942.067C766.882 939.9 777.282 936.867 787.248 932.967C843.148 947.7 927.215 982.8 1026.45 1066C1138.68 1159.6 1158.61 1465.1 1158.61 1465.1Z" fill="#544646"/>
<path d="M277.648 1465.1L258.148 1304.33" stroke="white" stroke-width="13" stroke-miterlimit="10" stroke-linecap="round" stroke-linejoin="round"/>
<path d="M1034.25 1249.73C1034.25 1249.73 1021.25 1281.37 1025.15 1313C1029.05 1344.63 1040.32 1391 1024.28 1465.1" stroke="white" stroke-width="13" stroke-miterlimit="10" stroke-linecap="round" stroke-linejoin="round"/>
<path d="M590.515 1176.07C350.882 1106.73 290.648 965.901 290.648 965.901C290.648 965.901 328.348 942.501 346.115 918.234C356.948 903.501 454.448 886.601 454.448 886.601C456.182 905.234 454.448 886.601 455.748 906.967C455.748 906.967 502.548 1046.07 624.315 1095.47C723.548 1135.77 782.482 1108.9 791.582 1064.27C797.215 1035.67 779.448 988.867 770.348 973.701C765.148 969.367 761.682 962.867 759.948 956.367L756.482 942.067C781.182 936.867 804.582 927.334 824.948 914.767C825.815 916.067 826.248 917.367 826.682 918.667C835.782 940.767 863.515 960.701 863.515 960.701C921.582 1097.63 834.482 1246.7 590.515 1176.07Z" fill="#544646"/>
<path d="M932.416 997.967C932.416 997.967 952.349 988.434 972.282 990.6C992.215 992.767 1087.12 1069.47 1096.22 1085.5C1105.75 1101.53 1105.32 1152.67 1094.05 1159.17C1083.22 1165.23 1076.28 1151.37 1076.28 1151.37C1076.28 1151.37 1084.52 1104.57 1075.42 1095.9C1066.32 1087.23 978.349 1013.57 975.315 1013.13C972.282 1012.7 955.815 1026.57 955.815 1026.57L932.416 997.967Z" fill="#544646"/>
<path d="M277.649 987.134C277.649 987.134 238.649 970.667 221.749 973.267C204.849 975.867 117.316 1051.27 109.082 1084.63C100.849 1118 128.582 1178.23 128.582 1178.23L148.082 1147.47C148.082 1147.47 134.216 1101.53 138.549 1083.33C142.882 1065.13 212.216 1002.73 219.149 1002.73C226.082 1002.73 267.682 1021.37 267.682 1021.37L277.649 987.134Z" fill="#544646"/>
<path d="M457.916 1011.83C499.516 1091.57 582.715 1197.73 721.815 1247.57C847.049 1292.63 839.249 1141.4 821.049 1050.83C696.249 1078.13 571.016 1080.3 457.916 1011.83Z" fill="#443F3F"/>
<path d="M821.048 1051.27C816.282 1027.43 810.648 1007.93 806.748 997.1C798.082 973.7 785.082 952.9 773.382 937.3C767.748 939.033 762.115 940.333 756.482 941.633L759.948 955.933C761.682 962.867 765.148 968.933 770.348 973.267C771.215 975 772.515 977.167 773.815 979.767C675.448 1017.9 559.315 967.633 559.315 967.633C524.215 965.9 526.815 1000.57 543.282 1041.73C480.882 982.367 455.748 906.967 455.748 906.967C454.882 893.967 454.015 881.4 452.715 868.833C452.715 868.833 420.648 886.6 426.282 926.467C428.882 943.367 438.848 975 458.348 1011.83C571.015 1080.3 696.248 1078.13 821.048 1051.27Z" fill="#ADD8E6"/>
<path d="M389.881 829.4C389.881 829.4 490.848 876.2 572.315 897.867C580.115 900.034 586.181 906.967 587.048 915.2C590.081 944.667 598.315 1013.57 605.248 1040C614.348 1074.23 790.715 1248.43 792.448 1270.53C794.181 1292.63 614.348 1287.43 507.315 1159.17C399.848 1030.9 408.081 1007.5 408.081 1007.5C408.081 1007.5 389.881 884.434 389.881 829.4Z" fill="#544646"/>
<path d="M870.448 875.767L898.182 887.467C906.848 890.934 911.182 900.901 908.148 910.001C895.582 948.134 864.382 1043.03 863.082 1075.97C861.348 1117.57 775.548 1384.93 775.548 1384.93C775.548 1384.93 723.115 1316.03 761.682 1248C792.015 1194.27 793.748 1079.43 790.715 1064.27C786.815 1044.33 770.348 997.534 761.248 968.067C756.482 952.034 755.615 942.067 755.615 942.067C755.615 942.067 815.415 932.101 870.448 875.767Z" fill="#544646"/>
<path d="M548.049 946.834C554.989 946.834 560.615 940.431 560.615 932.533C560.615 924.636 554.989 918.234 548.049 918.234C541.108 918.234 535.482 924.636 535.482 932.533C535.482 940.431 541.108 946.834 548.049 946.834Z" fill="white"/>
<path d="M748.249 1211.17C716.615 1177.37 628.215 1097.2 601.348 1079.43C585.748 1069.03 568.849 1061.23 551.082 1055.6C438.415 1019.2 401.582 959.834 401.582 959.834L396.815 918.234" stroke="#443F3F" stroke-width="13" stroke-miterlimit="10" stroke-linecap="round" stroke-linejoin="round"/>
<path d="M768.615 1235C768.615 1235 758.215 1286.57 762.548 1311.7C766.882 1336.83 770.348 1411.8 770.348 1411.8" stroke="#443F3F" stroke-width="13" stroke-miterlimit="10" stroke-linecap="round" stroke-linejoin="round"/>
<path d="M888.215 973.7C888.215 973.7 866.981 1048.23 857.015 1077.7C846.615 1107.17 799.381 1166.1 786.381 1194.27" stroke="#443F3F" stroke-width="13" stroke-miterlimit="10" stroke-linecap="round" stroke-linejoin="round"/>
<path d="M831.448 1228.93C839.346 1228.93 845.748 1222.53 845.748 1214.63C845.748 1206.74 839.346 1200.33 831.448 1200.33C823.551 1200.33 817.148 1206.74 817.148 1214.63C817.148 1222.53 823.551 1228.93 831.448 1228.93Z" fill="white"/>
<path d="M683.943 619.439C673.543 619.006 665.743 610.339 666.61 599.939L667.043 587.806C667.476 577.406 676.143 569.606 686.543 570.473C696.943 570.906 704.743 579.573 703.876 589.973L703.443 602.106C703.01 612.073 694.343 619.873 683.943 619.439Z" fill="#423232"/>
<path d="M866.375 625.939C856.842 625.506 849.475 617.272 849.909 607.739L850.342 596.472C850.775 586.939 859.009 579.572 868.542 580.006C878.075 580.439 885.442 588.672 885.009 598.206L884.575 609.472C884.142 619.006 875.909 626.372 866.375 625.939Z" fill="#423232"/>
<path d="M725.977 594.306C725.977 594.306 714.71 578.273 695.21 575.239C679.177 572.639 661.41 580.439 658.81 589.539" stroke="#423232" stroke-width="13" stroke-miterlimit="10" stroke-linecap="round" stroke-linejoin="round"/>
<path d="M853.809 598.206C853.809 598.206 853.809 584.339 873.743 584.339C890.209 584.339 897.143 599.506 897.143 599.506" stroke="#423232" stroke-width="13" stroke-miterlimit="10" stroke-linecap="round" stroke-linejoin="round"/>
<path d="M743.743 524.539C752.843 527.573 761.943 519.339 760.209 509.373C759.343 504.173 757.176 498.973 752.843 495.073C739.843 483.373 686.109 472.973 653.609 488.139C625.009 502.006 702.143 510.673 743.743 524.539Z" fill="#423232"/>
<path d="M873.308 531.473C865.941 534.073 858.141 526.273 859.441 517.173C859.874 512.406 861.608 507.639 865.074 504.173C875.474 493.773 911.008 485.539 933.541 501.573C953.041 515.006 907.108 518.906 873.308 531.473Z" fill="#423232"/>
<path d="M793.697 770.764C768.997 785.497 725.231 769.464 704.864 744.764" stroke="#423232" stroke-width="13" stroke-miterlimit="10" stroke-linecap="round" stroke-linejoin="round"/>
<path d="M971.541 366.632C940.774 477.999 852.807 455.899 767.874 429.032C468.441 334.132 520.007 624.032 516.107 618.832C506.574 600.632 486.207 578.099 447.641 582.865C397.374 589.365 377.007 700.732 471.041 746.665C468.874 766.599 454.574 783.499 438.107 795.632C393.907 758.365 325.441 686.432 299.874 582.432C290.341 544.299 294.241 512.665 298.141 487.965C310.707 411.265 358.374 395.232 358.374 395.232C360.107 314.199 444.607 224.932 586.741 227.965C729.307 230.132 1002.31 255.265 971.541 366.632Z" fill="black"/>
<path d="M975.007 500.532C970.674 528.699 958.54 550.365 941.64 566.399C948.14 519.165 944.674 496.632 939.04 470.199C926.907 416.032 900.907 369.232 857.574 334.565C879.24 332.832 901.34 337.599 921.274 350.165C921.274 350.165 949.874 370.099 960.707 434.232C964.174 452.865 978.907 472.799 975.007 500.532Z" fill="black"/>
<path d="M621.407 228.399C621.407 228.399 786.074 164.265 844.141 185.499C892.241 203.265 874.907 252.665 874.907 252.665C874.907 252.665 957.241 231.865 1001.87 285.599C1046.51 339.332 994.941 409.099 965.474 434.665C965.474 434.665 1011.84 446.799 1007.07 486.232C1001.44 535.632 941.207 565.965 941.207 565.965C941.207 565.965 962.007 523.499 958.974 482.765C955.941 442.032 960.707 412.999 930.807 383.532C900.907 353.632 829.841 381.799 753.141 343.665C676.874 305.532 621.407 228.399 621.407 228.399Z" fill="black"/>
<path d="M749.232 669.067H648.266C621.832 669.067 600.599 647.834 600.599 621.4V580.234C600.599 553.8 621.832 532.567 648.266 532.567H749.232C775.666 532.567 796.899 553.8 796.899 580.234V621.4C796.899 647.834 775.232 669.067 749.232 669.067Z" stroke="#666080" stroke-width="13" stroke-miterlimit="10" stroke-linecap="round" stroke-linejoin="round"/>
<path d="M923.432 532.567H873.599C856.266 532.567 841.966 546.867 841.966 564.2V601.9C848.032 623.567 856.699 644.367 869.699 663C870.999 663 872.299 663.434 873.599 663.434H923.432C940.766 663.434 955.066 649.134 955.066 631.8V564.2C955.499 546.434 941.199 532.567 923.432 532.567Z" stroke="#666080" stroke-width="13" stroke-miterlimit="10" stroke-linecap="round" stroke-linejoin="round"/>
<path d="M796.899 572C811.633 570.267 830.266 568.967 845.866 570.7" stroke="#666080" stroke-width="13" stroke-miterlimit="10" stroke-linecap="round" stroke-linejoin="round"/>
<path d="M600.599 575.034L500.066 578.5" stroke="#666080" stroke-width="13" stroke-miterlimit="10" stroke-linecap="round" stroke-linejoin="round"/>
</g>
</svg>
