<svg width="1300" height="1300" viewBox="0 0 1300 1300" fill="none" xmlns="http://www.w3.org/2000/svg">
<path d="M650 1300C290.71 1300 0 1008.86 0 650C0 290.71 291.141 0 650 0C1009.29 0 1300 291.141 1300 650C1300.43 1009.29 1009.29 1300 650 1300Z" fill="#F4DA92"/>
<mask id="mask0_26_635" style="mask-type:alpha" maskUnits="userSpaceOnUse" x="0" y="0" width="1301" height="1300">
<path d="M650 1300C290.71 1300 0 1008.86 0 650C0 290.71 291.141 0 650 0C1009.29 0 1300 291.141 1300 650C1300.43 1009.29 1009.29 1300 650 1300Z" fill="#F7C0B5"/>
</mask>
<g mask="url(#mask0_26_635)">
<path d="M1015.73 1197.33C1012.7 1199.5 1009.23 1201.66 1006.2 1203.83C1002.73 1206 999.698 1208.16 996.231 1209.9C993.198 1211.63 990.598 1213.36 987.564 1215.1C987.131 1215.53 986.698 1215.53 986.264 1215.96C976.298 1222.03 965.898 1227.66 955.498 1232.86C952.464 1234.6 948.998 1236.33 945.964 1237.63C945.964 1237.63 945.531 1238.06 945.098 1238.06C941.631 1239.8 938.164 1241.53 934.698 1243.26C927.764 1246.73 920.398 1249.76 913.464 1252.8C909.998 1254.53 906.098 1255.83 902.631 1257.13C899.164 1258.43 895.264 1260.16 891.798 1261.46C888.331 1262.76 884.431 1264.5 880.964 1265.8C880.964 1265.8 880.964 1265.8 880.531 1265.8C877.064 1267.1 873.164 1268.4 869.698 1269.7C861.898 1272.3 853.664 1274.9 845.864 1277.5C843.264 1278.36 840.231 1279.23 837.631 1280.1C829.398 1282.7 821.164 1284.86 812.931 1286.6C809.898 1287.46 806.864 1287.9 803.398 1288.76C795.598 1290.5 787.364 1292.23 779.564 1293.96C777.831 1294.4 776.531 1294.4 774.798 1294.83C772.198 1295.26 769.164 1295.7 766.564 1296.13C762.664 1296.56 759.198 1297.43 755.298 1297.86C753.564 1298.3 751.831 1298.3 750.098 1298.73C747.931 1299.16 745.331 1299.6 742.731 1299.6C735.798 1300.46 728.431 1301.33 721.498 1302.2C719.331 1302.63 716.731 1302.63 714.564 1303.06H714.131C711.098 1303.5 708.064 1303.5 705.031 1303.93C701.998 1304.36 698.964 1304.36 695.931 1304.36C694.198 1304.36 692.031 1304.8 690.298 1304.8C686.831 1304.8 683.798 1305.23 680.764 1305.23C676.431 1305.23 672.531 1305.66 668.198 1305.66C663.864 1305.66 659.964 1305.66 655.631 1305.66C652.598 1305.66 649.564 1305.66 646.531 1305.66C464.098 1303.06 299.431 1225.5 182.431 1102.43C182.431 1102.43 182.431 1102 181.998 1102C195.431 1075.56 245.264 1027.9 297.264 988.465C363.131 938.632 456.298 907.865 456.298 907.865C456.298 907.865 517.398 897.898 744.031 945.132C916.931 981.532 990.598 1129.3 1015.73 1197.33Z" fill="#FEE4BF"/>
<path d="M792.131 1065.16C783.031 1109.8 724.098 1136.23 624.865 1096.36C503.098 1046.96 456.298 907.865 456.298 907.865C449.798 808.198 434.631 722.832 434.631 722.832C575.465 710.698 741.865 875.365 741.865 875.365L760.931 956.832C762.665 963.765 766.131 969.832 771.331 974.165C780.431 989.765 798.198 1036.56 792.131 1065.16Z" fill="#FEE4BF"/>
<path d="M771.331 974.599C688.564 970.265 627.464 958.132 562.031 840.699C617.497 889.665 682.931 908.299 751.831 916.965L760.931 956.832C762.664 964.199 766.131 970.265 771.331 974.599Z" fill="#EFBDA5"/>
<path d="M942.498 452.432C950.298 488.832 954.198 518.298 932.964 615.365C911.731 712.432 952.464 809.498 850.198 898.332C781.298 958.132 660.831 969.398 564.631 903.965C532.131 881.865 502.231 851.098 477.964 810.798C458.898 779.165 436.798 749.265 412.098 721.965C377.864 684.698 336.698 609.732 357.064 477.132C389.998 261.332 603.631 236.632 729.731 260.465C855.831 284.298 921.264 356.232 942.498 452.432Z" fill="#FEE4BF"/>
<path d="M527.797 621.865C527.797 621.865 514.364 556.865 451.097 564.665C396.497 571.598 377.431 702.465 501.364 738.865" fill="#FEE4BF"/>
<path d="M497.465 679.498C497.465 679.498 481.865 669.532 483.598 652.198C486.198 631.832 483.598 619.265 474.065 615.365C450.231 605.398 445.465 633.132 446.331 636.598" stroke="#090806" stroke-width="13" stroke-miterlimit="10" stroke-linecap="round" stroke-linejoin="round"/>
<path d="M828.097 721.532C828.097 721.532 844.564 722.398 860.164 703.765C868.831 693.365 876.197 680.365 871.431 676.465C866.664 672.132 788.231 684.265 783.031 694.665C777.831 705.065 808.164 721.532 828.097 721.532Z" fill="#EFBDA5"/>
<path d="M841.098 575.932C841.098 575.932 841.965 617.098 868.398 663.032C880.098 683.398 862.331 716.765 823.765 722.398" stroke="#090806" stroke-width="13" stroke-miterlimit="10" stroke-linecap="round" stroke-linejoin="round"/>
<path opacity="0.42" d="M606.231 743.632C630.882 743.632 650.865 727.141 650.865 706.799C650.865 686.456 630.882 669.965 606.231 669.965C581.581 669.965 561.598 686.456 561.598 706.799C561.598 727.141 581.581 743.632 606.231 743.632Z" fill="#F2A5B2"/>
<path opacity="0.42" d="M926.031 670.832C924.731 695.098 925.164 718.932 923.431 742.765C904.364 738.432 890.498 724.132 890.498 707.232C890.498 689.032 905.664 674.298 926.031 670.832Z" fill="#F2A5B2"/>
<path d="M1158.82 1466.34H63.356C63.356 1466.34 68.1226 1264.41 135.723 1121.84C185.556 1016.11 313.823 955.873 403.089 925.106C423.023 918.173 441.223 912.973 455.956 909.073C460.723 922.073 508.823 1049.47 624.089 1096.27C723.323 1136.57 782.256 1109.71 791.356 1065.07C796.989 1036.47 779.223 989.673 770.123 974.506C764.923 970.173 761.456 963.673 759.723 957.173L756.256 942.873C764.056 941.14 771.423 938.973 779.223 936.806C783.123 937.673 787.023 938.54 790.923 939.406C846.823 952.84 929.589 985.34 1026.66 1067.24C1138.89 1160.84 1158.82 1466.34 1158.82 1466.34Z" fill="#77A0E0"/>
<path d="M806.956 1182.94C791.789 1187.27 738.923 1132.24 728.089 1122.71C718.123 1133.97 647.923 1213.27 613.256 1208.07C575.123 1202.44 477.623 1137.01 428.223 1034.31C400.923 977.973 400.056 943.74 403.089 925.106C404.389 916.44 406.989 910.806 408.289 907.773C412.623 897.806 443.823 859.24 451.623 859.673V860.106C455.523 901.706 468.956 942.006 491.489 977.106C519.223 1020.01 562.989 1071.57 624.089 1096.27C723.323 1136.57 774.889 1096.71 783.556 1052.07C789.189 1023.47 779.223 989.673 770.123 974.506C764.923 970.173 761.456 963.673 759.723 957.173L756.256 942.873C764.056 941.14 771.423 938.973 779.223 936.806C781.389 935.94 783.989 935.506 786.156 934.64C787.456 936.373 789.189 938.106 790.489 939.84C808.689 960.64 827.756 989.24 838.156 1037.77C855.923 1115.34 823.856 1177.74 806.956 1182.94Z" fill="#423232"/>
<path d="M726.79 1120.11C726.79 1120.11 758.423 1138.31 757.556 1153.47C756.69 1168.64 765.79 1216.74 765.79 1216.74" stroke="#423232" stroke-width="13" stroke-miterlimit="10" stroke-linecap="round" stroke-linejoin="round"/>
<path d="M726.356 1177.74C732.1 1177.74 736.756 1173.08 736.756 1167.34C736.756 1161.6 732.1 1156.94 726.356 1156.94C720.613 1156.94 715.956 1161.6 715.956 1167.34C715.956 1173.08 720.613 1177.74 726.356 1177.74Z" fill="#423232"/>
<path d="M730.256 1218.47C736 1218.47 740.656 1213.82 740.656 1208.07C740.656 1202.33 736 1197.67 730.256 1197.67C724.512 1197.67 719.856 1202.33 719.856 1208.07C719.856 1213.82 724.512 1218.47 730.256 1218.47Z" fill="#423232"/>
<path d="M277.856 1466.34L258.356 1305.57" stroke="#544D4D" stroke-width="13" stroke-miterlimit="10" stroke-linecap="round" stroke-linejoin="round"/>
<path d="M1034.46 1250.97C1034.46 1250.97 1021.46 1282.61 1025.36 1314.24C1029.26 1345.87 1040.52 1392.24 1024.49 1466.34" stroke="#544D4D" stroke-width="13" stroke-miterlimit="10" stroke-linecap="round" stroke-linejoin="round"/>
<path d="M683.943 619.439C673.543 619.006 665.743 610.339 666.61 599.939L667.043 587.806C667.476 577.406 676.143 569.606 686.543 570.473C696.943 570.906 704.743 579.573 703.876 589.973L703.443 602.106C703.01 612.073 694.343 619.873 683.943 619.439Z" fill="#090806"/>
<path d="M866.375 625.939C856.842 625.506 849.475 617.272 849.909 607.739L850.342 596.472C850.775 586.939 859.009 579.572 868.542 580.006C878.075 580.439 885.442 588.672 885.009 598.206L884.575 609.472C884.142 619.006 875.909 626.372 866.375 625.939Z" fill="#090806"/>
<path d="M725.977 594.306C725.977 594.306 714.71 578.273 695.21 575.239C679.177 572.639 661.41 580.439 658.81 589.539" stroke="#090806" stroke-width="13" stroke-miterlimit="10" stroke-linecap="round" stroke-linejoin="round"/>
<path d="M853.809 598.206C853.809 598.206 853.809 584.339 873.743 584.339C890.209 584.339 897.143 599.506 897.143 599.506" stroke="#090806" stroke-width="13" stroke-miterlimit="10" stroke-linecap="round" stroke-linejoin="round"/>
<path d="M743.743 524.539C752.843 527.573 761.943 519.339 760.209 509.373C759.343 504.173 757.176 498.973 752.843 495.073C739.843 483.373 686.109 472.973 653.609 488.139C625.009 502.006 702.143 510.673 743.743 524.539Z" fill="#090806"/>
<path d="M873.308 531.473C865.941 534.073 858.141 526.273 859.441 517.173C859.874 512.406 861.608 507.639 865.074 504.173C875.474 493.773 911.008 485.539 933.541 501.573C953.041 515.006 907.108 518.906 873.308 531.473Z" fill="#090806"/>
<path d="M798.031 764.264C778.964 775.53 748.631 768.597 726.531 753.43" stroke="#090806" stroke-width="10.6951" stroke-miterlimit="10" stroke-linecap="round" stroke-linejoin="round"/>
<path d="M947.25 445.323C945.95 438.823 944.216 431.89 942.05 425.39C939.883 418.89 934.683 413.257 927.75 411.957C905.216 408.057 883.55 369.057 852.35 364.723C753.116 351.29 686.816 359.523 593.65 395.923C497.45 433.19 600.583 567.957 531.683 612.157C528.216 600.023 511.316 550.623 455.85 557.557C403.416 564.057 383.483 685.39 491.816 726.99C444.583 804.123 448.05 773.357 413.383 731.757C378.716 690.157 309.383 582.257 356.183 424.523C402.983 266.79 614.883 184.457 812.05 264.623C845.85 278.49 866.216 312.723 895.683 318.357C1169.98 370.79 953.75 476.523 947.25 445.323Z" fill="#423232"/>
<path d="M680.75 363.423C680.75 363.423 643.916 352.59 621.816 410.223C599.716 467.857 522.583 547.157 458.45 454.857C394.316 362.99 490.516 289.323 590.616 319.223C690.716 349.123 679.45 326.59 680.75 363.423Z" fill="#423232"/>
<path d="M744.449 321.39C744.449 321.39 841.949 383.357 906.083 359.09C946.383 343.924 991.883 288.024 960.249 246.424C922.549 196.59 805.983 234.29 740.983 213.49C643.483 182.29 492.249 161.49 421.183 278.49C403.416 307.957 387.383 337.857 362.249 361.257C336.249 385.524 310.249 424.957 308.083 486.49C304.183 609.124 400.383 715.724 400.383 715.724C400.383 715.724 343.183 505.99 451.083 474.79C558.983 443.59 588.883 335.69 660.383 335.69C731.883 335.69 698.516 255.09 744.449 321.39Z" fill="#423232"/>
<path d="M839.35 376.424C839.35 376.424 917.783 474.357 976.717 468.724C1035.65 463.09 1101.95 336.557 939.883 293.224C777.817 249.89 839.35 376.424 839.35 376.424Z" fill="#423232"/>
<path d="M680.75 363.423C680.75 363.423 732.316 490.823 869.25 505.99C1006.62 521.59 1062.08 270.257 852.349 246.423C642.616 222.59 680.75 363.423 680.75 363.423Z" fill="#423232"/>
<path d="M571.116 303.624C571.116 303.624 603.183 449.223 670.783 455.723C738.383 462.223 720.183 274.157 631.783 261.157C543.383 248.157 571.116 303.624 571.116 303.624Z" fill="#423232"/>
<path d="M749.232 669.067H648.266C621.832 669.067 600.599 647.834 600.599 621.4V580.234C600.599 553.8 621.832 532.567 648.266 532.567H749.232C775.666 532.567 796.899 553.8 796.899 580.234V621.4C796.899 647.834 775.232 669.067 749.232 669.067Z" stroke="#423232" stroke-width="13" stroke-miterlimit="10" stroke-linecap="round" stroke-linejoin="round"/>
<path d="M923.432 532.567H873.599C856.266 532.567 841.966 546.867 841.966 564.2V601.9C848.032 623.567 856.699 644.367 869.699 663C870.999 663 872.299 663.434 873.599 663.434H923.432C940.766 663.434 955.066 649.134 955.066 631.8V564.2C955.499 546.434 941.199 532.567 923.432 532.567Z" stroke="#423232" stroke-width="13" stroke-miterlimit="10" stroke-linecap="round" stroke-linejoin="round"/>
<path d="M796.899 572C811.633 570.267 830.266 568.967 845.866 570.7" stroke="#423232" stroke-width="13" stroke-miterlimit="10" stroke-linecap="round" stroke-linejoin="round"/>
<path d="M600.599 575.034L500.066 578.5" stroke="#423232" stroke-width="13" stroke-miterlimit="10" stroke-linecap="round" stroke-linejoin="round"/>
</g>
</svg>
